<svg width="1152" height="700" viewBox="0 0 1152 700" fill="none" xmlns="http://www.w3.org/2000/svg">
<g clip-path="url(#clip0)">
<g filter="url(#filter0_i)">
<path d="M1124 675.273V171.979C1102.75 170.114 1081.19 170.485 1060.64 176.913C976.468 203.236 941.001 316.833 857.641 345.804C824.472 357.333 788.455 353.503 753.545 355.804C720.354 357.99 687.517 365.883 656.778 379.063C636.962 387.563 617.667 398.52 602.99 414.743C590.629 428.407 582.059 445.212 573.795 461.876C559.002 491.707 544.714 521.785 530.938 552.099C516.767 583.281 502.903 615.109 481.885 641.808C465.035 663.215 444.61 680.169 422 694H779.675C805.429 688.256 831.146 682.405 856.823 676.56C898.47 667.079 940.451 657.572 983.081 656.8C987.99 656.711 993.206 656.826 997.342 659.572C1002.64 663.09 1004.74 669.882 1006.88 676.018C1009.04 682.177 1011.61 688.184 1014.57 694H1105.95C1115.92 694 1124 685.616 1124 675.273Z" fill="#23295B"/>
</g>
<g filter="url(#filter1_d)">
<path d="M1152 681.481V167C1147.91 167.252 1144.15 167.515 1141.1 167.656C1122.39 168.516 1103.67 171.921 1086.81 180.354C1017.44 215.049 1005.95 316.176 939.125 355.529C898.536 379.433 848.002 374.404 800.87 373.228C753.736 372.05 700.252 378.666 671.956 416.244C645.363 451.565 650.713 501.922 630.137 541.027C607.604 583.849 558.63 605.326 511.921 618.432C480.964 627.118 446.573 635.342 427.841 661.388C419.617 672.825 415.624 686.066 414 700H1152" fill="#E9EAEA"/>
</g>
<g filter="url(#filter2_d)">
<path fill-rule="evenodd" clip-rule="evenodd" d="M397 -1H-1V699H397V700H442.09C461.521 687.106 479.14 671.715 494.033 652.957C514.285 627.451 528.056 597.339 541.702 567.497L541.735 567.424L541.752 567.388L541.768 567.353L542.779 565.142L544.297 561.827C558.414 531.029 573.054 500.474 588.212 470.175C596.68 453.246 605.462 436.175 618.127 422.294C633.167 405.814 652.938 394.684 673.244 386.049C704.741 372.66 738.389 364.642 772.399 362.421C782.604 361.754 792.901 361.594 803.196 361.434H803.197C828.991 361.034 854.773 360.633 879.065 352.263C921.236 337.733 951.445 302.25 981.604 266.827C1012.53 230.5 1043.41 194.235 1087.08 180.696C1108.14 174.166 1130.23 173.789 1152 175.684V-1H397Z" fill="white"/>
</g>
<path d="M587.204 621.981L614.639 632.287C614.639 632.287 613.05 619.508 614.639 620.743C616.23 621.981 659.568 655.37 659.568 655.37L622.989 638.056L626.966 650.835L587.204 621.981Z" fill="#23295B"/>
<path d="M1090.42 285L1074.27 310.195C1074.27 310.195 1086.62 311.618 1085.09 312.929C1083.55 314.238 1042 349.987 1042 349.987L1066.88 317.24L1053.97 318.221L1090.42 285Z" fill="#100F0D"/>
<path d="M626.857 352.881L655.552 347.39C655.552 347.39 647.947 337.199 649.923 337.432C651.899 337.664 705.575 343.753 705.575 343.753L665.571 347.991L675.233 356.931L626.857 352.881V352.881ZM1004.08 174.302L991.155 201.422C991.155 201.422 1003.58 201.204 1002.22 202.706C1000.86 204.206 964.032 245.146 964.032 245.146L984.694 209.383L972.003 212.06L1004.08 174.302V174.302Z" fill="#EE2448"/>
<path d="M578.033 648.883L585.825 656.823L596.553 654.671L591.676 664.809L596.965 674.72L586.159 673.043L578.7 681.322L576.898 670.148L567 665.355L576.693 660.126L578.033 648.883V648.883Z" fill="white"/>
<path d="M1005.47 332L1012.15 338.815L1021.36 336.968L1017.17 345.667L1021.71 354.171L1012.44 352.733L1006.04 359.837L1004.5 350.25L996 346.134L1004.32 341.647L1005.47 332V332ZM667.317 304.562L670.782 311.498L678.258 312.47L672.965 318.03L674.384 325.701L667.648 322.201L661.048 325.969L662.179 318.248L656.683 312.904L664.114 311.632L667.317 304.562V304.562Z" fill="#23295B"/>
<path d="M1035.96 265L1039.56 269.775L1045.4 269.401L1042.14 274.434L1044.29 280.075L1038.66 278.41L1034.15 282.27L1033.94 276.21L1029 272.953L1034.5 270.872L1035.96 265V265ZM806.956 568L810.564 572.775L816.402 572.401L813.138 577.434L815.284 583.075L809.658 581.41L805.147 585.27L804.934 579.21L800 575.955L805.494 573.874L806.956 568Z" fill="#EE2448"/>
<g filter="url(#filter3_d)">
<path d="M1098.97 524.42C1098.97 524.42 1131.04 496.831 1144.57 470.75C1158.1 444.67 1172.85 423.816 1178.08 405.836C1183.32 387.853 1167.83 380.393 1161.71 379.479C1155.59 378.566 1140.56 373.864 1140.56 373.864C1140.56 373.864 1142.81 356.95 1131.83 353.361C1120.85 349.774 1108.46 357.67 1108.46 357.67C1108.46 357.67 1099.51 354.789 1089.9 359.48C1080.3 364.171 1047.8 375.624 1041.84 377.758C1035.87 379.893 1034.55 383.172 1034.55 383.172C1034.55 383.172 1017.36 380.793 1013.26 399.442C1013.26 399.442 999.765 393.295 994.53 411.277C989.299 429.258 984.098 465.485 993.444 504.262C1002.79 543.036 998.287 545.246 995.144 594.04C992.001 642.833 972.891 808.196 972.891 808.196C972.891 808.196 1051.92 824.297 1102.51 814.659C1102.51 814.659 1097.1 551.997 1098.97 524.42V524.42Z" fill="#23295B"/>
<path d="M1116.27 386.383C1116.27 386.383 1122.72 416.055 1156.98 419.314C1156.98 419.314 1131.74 425.093 1121.41 409.665C1121.41 409.665 1116.76 398.1 1116.27 386.383Z" fill="#1A2042"/>
<path d="M1151.61 419.699C1151.61 419.699 1126.75 434.709 1126.76 455.698C1126.76 455.698 1072.06 455.255 1050.63 500.435C1050.63 500.435 1048.82 467.384 1015.69 456.593C1015.69 456.593 1021.27 441.976 1012.68 437.147C1012.68 437.147 1025.57 440.836 1028.18 433.855C1028.18 433.855 1039.35 453.373 1068.79 438.25L1113.42 412.379C1113.42 412.379 1105.42 395.768 1115.61 379.669C1115.61 379.669 1111.81 425.841 1151.61 419.699V419.699Z" fill="#1A2042"/>
<path d="M996.892 527.563C996.892 527.563 1010.77 537.76 1034.44 534.394C1034.44 534.394 1016.28 539.273 1014.73 572.671L1010.84 544.789L984.443 701.335C984.443 701.335 1000.83 562.886 996.892 527.563V527.563ZM994.53 411.277C999.765 393.295 1013.26 399.442 1013.26 399.442C1017.36 380.793 1034.55 383.172 1034.55 383.172C1034.55 383.172 1035.87 379.893 1041.84 377.758C1047.8 375.624 1080.3 364.171 1089.9 359.48C1099.51 354.789 1108.46 357.67 1108.46 357.67C1108.46 357.67 1120.85 349.774 1131.83 353.361C1142.81 356.95 1140.56 373.864 1140.56 373.864C1140.56 373.864 1155.59 378.566 1161.71 379.479C1167.83 380.393 1183.32 387.853 1178.08 405.836C1176.8 410.259 1174.93 414.857 1172.65 419.664L1172.33 419.367C1172.33 419.367 1179.81 396.856 1160.17 390.791C1140.52 384.725 1115.48 384.561 1115.48 384.561C1115.48 384.561 1114.99 381.651 1115.31 378.437C1115.51 379.201 1115.61 379.669 1115.61 379.669L1115.34 378.068C1115.84 373.772 1117.83 369.112 1124.32 370.186L1134.35 372.34C1134.35 372.34 1131.73 356 1112.72 362.681L1115.34 378.068L1115.31 378.437C1114.01 373.689 1108.44 357.114 1095.16 364.665C1079.73 373.43 1060.43 379.778 1060.43 379.778L1080.66 379.834C1080.66 379.834 1092.28 385.652 1092.87 403.245C1092.87 403.245 1084.98 385.77 1065.01 386.681C1045.04 387.593 1027.34 385.757 1025.08 401.536L1051.3 404.749C1051.3 404.749 1064.42 406.04 1067.38 428.118C1067.38 428.118 1058.91 412.44 1043.3 411.979C1027.68 411.517 1008.14 409.908 1008.14 409.908C1008.14 409.908 1009.05 423.303 1019.94 433.063C1019.94 433.063 1004.44 423.39 1000.92 413.363C1000.92 413.363 1002.01 436.302 1012.96 444.792C1012.96 444.792 996.645 439.531 993.124 429.502C993.124 429.502 989.55 475.459 991.675 496.043C984.845 460.433 989.669 427.981 994.53 411.277V411.277Z" fill="#EE2448"/>
<path d="M1139.89 376.385L1125.59 372.01L1125.96 372.081C1125.44 372.03 1124.57 372.056 1123.89 372.172C1123.18 372.301 1122.47 372.48 1121.84 372.781C1120.56 373.353 1119.49 374.31 1118.78 375.519C1118 376.728 1117.64 378.315 1117.42 379.939C1117.23 381.609 1117.31 383.281 1117.44 385.115C1118.05 392.496 1118.81 399.866 1121.87 406.247C1123.38 409.412 1125.51 412.232 1128.23 414.319C1130.91 416.474 1134.18 417.801 1137.55 418.62C1144.37 420.214 1151.61 419.563 1158.63 418.362L1158.65 418.36C1159.07 418.286 1159.48 418.585 1159.55 419.028C1159.58 419.233 1159.54 419.443 1159.42 419.616C1159.31 419.789 1159.13 419.911 1158.93 419.958C1151.83 421.425 1144.44 422.397 1137.08 420.962C1133.43 420.216 1129.77 418.893 1126.66 416.568C1123.5 414.32 1120.96 411.174 1119.17 407.716C1115.54 400.737 1114.53 392.911 1113.67 385.524C1113.27 381.74 1113 377.359 1115.2 373.316C1116.28 371.334 1118.03 369.648 1120.03 368.681C1121.02 368.173 1122.07 367.859 1123.12 367.636C1124.21 367.435 1125.16 367.33 1126.44 367.407L1126.68 367.444L1126.8 367.479L1141.23 371.343C1142.58 371.705 1143.39 373.131 1143.05 374.53C1142.7 375.929 1141.32 376.769 1139.97 376.409L1139.89 376.385V376.385ZM1013.57 396.845L1049.91 401.464L1049.73 401.446C1051.4 401.59 1052.66 401.924 1054.06 402.348C1055.4 402.819 1056.73 403.348 1057.97 404.075C1060.48 405.47 1062.72 407.402 1064.52 409.691C1066.38 411.955 1067.58 414.647 1068.55 417.326C1068.92 418.697 1069.42 420.059 1069.6 421.452C1069.86 422.849 1070.1 424.248 1070.24 425.479L1072.55 440.979C1073.22 446.231 1073.88 451.605 1073.17 457.331C1072.77 460.156 1071.97 463.215 1070.02 465.812C1069.06 467.096 1067.88 468.194 1066.53 469.054C1065.19 469.868 1063.77 470.429 1062.35 470.818C1059.72 471.425 1057.09 471.953 1054.39 472.043C1053.06 472.18 1051.7 472.06 1050.35 472.071C1049 471.909 1047.64 471.894 1046.3 471.58C1043.6 471.169 1040.94 470.209 1038.42 468.954C1035.88 467.67 1033.62 465.769 1031.68 463.579C1027.95 458.98 1026.31 453.007 1026.2 447.408L1027.94 449.83C1025.31 448.669 1023.16 447.333 1021 445.785C1018.86 444.251 1016.87 442.521 1015.06 440.616C1013.23 438.736 1011.59 436.673 1010.18 434.458C1008.72 432.286 1007.62 429.887 1006.61 427.494C1006.54 427.329 1006.54 427.145 1006.6 426.978C1006.67 426.811 1006.79 426.675 1006.95 426.597C1007.1 426.531 1007.26 426.523 1007.42 426.574C1007.57 426.625 1007.7 426.731 1007.78 426.872L1007.8 426.911C1009.05 429.079 1010.36 431.196 1011.98 433.048C1013.53 434.926 1015.27 436.636 1017.17 438.152C1019.03 439.664 1021.03 441.002 1023.14 442.148C1025.19 443.266 1027.49 444.268 1029.51 444.856L1029.58 444.882C1030.59 445.255 1031.23 446.231 1031.25 447.277C1031.35 452.101 1032.73 456.7 1035.51 460.163C1036.99 461.802 1038.68 463.271 1040.69 464.287C1042.71 465.273 1044.86 466.085 1047.16 466.426C1051.7 467.297 1056.55 466.849 1061.11 465.747C1062.13 465.461 1063.08 465.077 1063.92 464.575C1064.73 464.051 1065.45 463.387 1066.03 462.614C1067.22 461.067 1067.86 458.907 1068.18 456.598C1068.78 451.92 1068.22 446.781 1067.55 441.705L1065.24 426.202C1065.09 424.835 1064.87 423.665 1064.66 422.491C1064.51 421.283 1064.08 420.19 1063.79 419.041C1062.98 416.861 1062.05 414.712 1060.61 412.988C1059.23 411.235 1057.52 409.772 1055.58 408.681C1054.63 408.116 1053.59 407.711 1052.55 407.338C1051.53 407.017 1050.32 406.744 1049.48 406.672L1049.31 406.657L1049.3 406.655L1012.96 402.038C1011.57 401.861 1010.59 400.556 1010.76 399.122C1010.93 397.689 1012.19 396.668 1013.57 396.845V396.845Z" fill="#100F0D"/>
<path d="M1029.69 429.251C1029.61 432.474 1029.84 435.622 1030.48 438.549C1031.15 441.476 1032.14 444.222 1033.6 446.74C1035.12 449.211 1036.92 451.54 1039.12 453.64C1040.18 454.725 1041.42 455.638 1042.56 456.722C1043.79 457.679 1045.07 458.602 1046.3 459.711L1046.36 459.763C1046.64 460.016 1046.67 460.455 1046.43 460.746C1046.26 460.946 1046 461.023 1045.77 460.968C1044.17 460.591 1042.59 460.082 1041.01 459.504C1039.53 458.724 1037.94 458.08 1036.56 457.052C1035.87 456.539 1035.15 456.05 1034.48 455.5C1033.77 454.987 1033.21 454.288 1032.57 453.681C1031.26 452.485 1030.29 450.935 1029.29 449.448C1027.43 446.3 1026.38 442.74 1026.24 439.088C1026.08 435.484 1026.78 431.915 1028.51 428.824C1028.69 428.511 1029.07 428.404 1029.37 428.586C1029.58 428.71 1029.69 428.935 1029.69 429.166V429.251V429.251ZM1034.97 385.75C1034.97 385.75 1035.36 385.681 1036.07 385.561C1041.37 384.661 1046.69 383.846 1052.02 383.115C1059.04 382.155 1066.73 381.313 1071.52 381.317C1072.1 381.317 1072.63 381.33 1073.11 381.354C1075.66 381.478 1077.85 381.719 1079.67 382.258C1081.04 382.664 1082.19 383.218 1083.23 384.022C1084.79 385.227 1086.18 387.045 1087.42 390.156C1088.65 393.258 1089.66 397.613 1090.37 403.564C1092.13 418.362 1092.4 428.874 1092.4 433.949C1092.4 435.098 1092.39 435.969 1092.38 436.547C1092.37 436.837 1092.36 437.053 1092.36 437.195L1092.35 437.392L1094.87 437.518L1092.42 436.888L1093.04 437.049L1092.42 436.883V436.888L1093.04 437.049L1092.42 436.883C1092.41 436.964 1091.38 440.974 1088.83 444.738C1087.55 446.624 1085.91 448.438 1083.89 449.758C1081.85 451.075 1079.44 451.939 1076.36 451.946C1074.98 451.946 1073.45 451.765 1071.78 451.348C1070.42 451.011 1069.06 451.876 1068.73 453.28C1068.41 454.685 1069.24 456.096 1070.6 456.434C1072.63 456.939 1074.55 457.176 1076.36 457.176C1080.45 457.183 1083.93 455.943 1086.7 454.101C1090.86 451.332 1093.46 447.346 1095.06 444.1C1096.67 440.845 1097.28 438.278 1097.32 438.147L1097.39 437.643C1097.39 437.603 1097.45 436.335 1097.45 433.949C1097.45 428.681 1097.17 417.956 1095.38 402.926C1094.72 397.379 1093.8 392.994 1092.56 389.457C1091.64 386.805 1090.53 384.626 1089.19 382.843C1087.2 380.162 1084.67 378.461 1081.96 377.521C1079.25 376.569 1076.38 376.283 1073.35 376.128C1072.78 376.1 1072.17 376.088 1071.52 376.088C1065.48 376.093 1056.22 377.224 1048.36 378.346C1043.61 379.027 1038.86 379.776 1034.13 380.594C1032.75 380.834 1031.83 382.184 1032.06 383.609C1032.29 385.034 1033.6 385.991 1034.97 385.75ZM1107.88 360.212L1108.11 359.21L1107.82 360.198L1107.88 360.212L1108.11 359.21L1107.82 360.198C1107.88 360.222 1109.25 360.65 1110.67 362.567C1112.07 364.49 1113.64 368.033 1113.65 374.694C1113.65 376.139 1114.78 377.309 1116.18 377.307C1117.57 377.305 1118.7 376.134 1118.7 374.689C1118.7 366.691 1116.61 361.729 1114.24 358.83C1111.88 355.924 1109.41 355.21 1109.05 355.127C1107.7 354.789 1106.34 355.653 1106.01 357.059C1105.69 358.463 1106.52 359.875 1107.88 360.212V360.212Z" fill="#100F0D"/>
<path d="M1095 437.8C1096.1 438.147 1097.19 438.568 1098.29 438.872L1099.96 439.177L1100.79 439.337L1101.62 439.354C1103.85 439.579 1105.99 439.027 1107.94 438.101C1109.88 437.141 1111.58 435.61 1112.95 433.746C1114.3 431.912 1115.43 429.657 1116.08 427.542L1116.02 427.959L1116.9 402.988C1116.93 402.103 1117.64 401.411 1118.5 401.444C1119.35 401.475 1120.01 402.206 1119.99 403.081L1119.5 428.062V428.094L1119.44 428.479C1118.63 431.292 1117.44 433.683 1115.83 435.99C1114.23 438.248 1112.12 440.249 1109.59 441.553C1107.09 442.83 1104.22 443.546 1101.47 443.33L1100.44 443.316L1099.43 443.151L1097.42 442.814C1096.12 442.482 1094.86 442.029 1093.58 441.633C1092.53 441.31 1091.94 440.169 1092.25 439.084C1092.56 438.001 1093.66 437.385 1094.71 437.708L1094.72 437.711L1095 437.8V437.8Z" fill="#100F0D"/>
<path d="M1022.83 445.81L1022.77 452.245C1022.77 452.245 1011.33 456.877 1000.9 449.916C1000.9 449.916 1048.85 471.872 1050.63 500.435C1050.63 500.435 1062.78 454.736 1117.46 444.834C1117.46 444.834 1120.35 423.683 1146.54 420.284C1146.54 420.284 1136.91 422.032 1129.02 416.933C1129.02 416.933 1128.15 420.356 1118.28 422.093C1118.28 422.093 1121.19 441.553 1097.82 440.884C1097.82 440.884 1095.57 437.8 1093.46 442.151C1091.35 446.504 1086.64 455.183 1075.47 454.131C1075.47 454.131 1070.78 452.164 1069.99 458.811C1069.21 465.457 1056.79 475.734 1036.29 464.559C1036.29 464.559 1031.45 465.804 1029.63 448.377L1022.83 445.81V445.81ZM1091.15 536.778C1091.15 536.778 1087.29 593.89 1087.23 595.14C1087.18 596.389 1084.51 530.183 1084.51 530.183C1063.47 527.882 1062.11 518.108 1062.11 518.108C1126.61 508.172 1161.25 438.503 1161.25 438.503L1161.31 440.764C1156.03 449.968 1150.2 459.907 1144.57 470.75C1131.04 496.831 1098.97 524.42 1098.97 524.42C1097.1 551.997 1102.51 814.659 1102.51 814.659C1092.91 816.487 1082.28 817.388 1071.36 817.65C1085.41 718.786 1091.15 536.778 1091.15 536.778V536.778ZM990.244 491.664C990.244 491.664 998.592 533.102 1034.86 526.142C1034.86 526.142 1016.01 535.223 996.215 519.206L990.244 491.664V491.664ZM1142.03 374.455L1140.78 376.728L1141.49 375.431L1140.75 376.713L1140.78 376.728L1141.49 375.431L1140.75 376.713L1140.8 376.745C1141.08 376.936 1142.44 377.926 1143.71 380.037C1144.98 382.153 1146.22 385.39 1146.23 390.341C1146.23 391.931 1146.09 393.699 1145.79 395.663L1148.28 396.081L1148.4 393.468H1148.37C1147.95 393.446 1143.47 393.135 1138.77 391.612C1136.42 390.856 1134.03 389.798 1132.08 388.407C1130.12 387.012 1128.63 385.334 1127.82 383.288C1126.15 379.11 1125.72 376.287 1125.72 374.532C1125.73 373.242 1125.95 372.524 1126.09 372.176C1126.16 372.002 1126.21 371.919 1126.22 371.904L1126.18 371.875L1126.22 371.908V371.904L1126.18 371.875L1126.22 371.908L1125.13 371.037L1126.09 372.054L1126.22 371.908L1125.13 371.037L1126.09 372.054L1124.32 370.186L1123.75 372.733L1141.45 377.001L1142.03 374.455L1140.78 376.728L1142.03 374.455L1142.6 371.906L1124.89 367.638C1124.48 367.54 1124.04 367.552 1123.64 367.671C1123.23 367.791 1122.86 368.014 1122.56 368.319C1122.34 368.533 1121.86 369.112 1121.44 370.136C1121.02 371.161 1120.68 372.615 1120.68 374.532C1120.68 377.156 1121.3 380.638 1123.15 385.286C1124.48 388.612 1126.85 391.083 1129.47 392.895C1133.43 395.613 1138.05 396.997 1141.7 397.779C1145.36 398.552 1148.07 398.689 1148.16 398.694C1149.44 398.759 1150.56 397.818 1150.77 396.502C1151.12 394.28 1151.27 392.228 1151.27 390.341C1151.28 383.867 1149.41 379.302 1147.45 376.423C1145.49 373.536 1143.5 372.319 1143.27 372.181C1143.07 372.059 1142.83 371.962 1142.6 371.906L1142.03 374.455V374.455Z" fill="#100F0D"/>
<path d="M1098.97 524.42L1100.58 526.434C1100.62 526.397 1108.69 519.455 1118.49 509.208C1128.28 498.948 1139.81 485.433 1146.79 471.99C1153.51 459.041 1160.55 447.344 1166.62 436.573C1172.67 425.798 1177.76 415.961 1180.5 406.59C1181.3 403.843 1181.67 401.263 1181.67 398.862C1181.67 395.192 1180.79 391.95 1179.38 389.232C1177.26 385.146 1174.02 382.251 1170.82 380.284C1167.6 378.319 1164.44 377.254 1162.07 376.89C1160.69 376.685 1158.64 376.233 1156.42 375.674C1153.07 374.835 1149.28 373.753 1146.33 372.884C1144.86 372.449 1143.59 372.067 1142.7 371.795C1141.81 371.522 1141.29 371.36 1141.29 371.36L1140.56 373.864L1143.06 374.22C1143.07 374.133 1143.27 372.594 1143.27 370.315C1143.27 367.535 1142.99 363.654 1141.56 359.89C1140.83 358.011 1139.81 356.155 1138.34 354.553C1136.77 352.847 1134.79 351.578 1132.59 350.868C1130.27 350.109 1127.93 349.811 1125.68 349.811C1120.71 349.818 1116.14 351.233 1112.77 352.617C1109.4 354.007 1107.23 355.385 1107.14 355.441L1108.46 357.67L1109.21 355.171C1109.04 355.119 1106.09 354.182 1101.69 354.178C1098.11 354.178 1093.55 354.808 1088.83 357.114C1086.56 358.225 1082.75 359.816 1078.29 361.569C1064.88 366.844 1045.5 373.683 1041.01 375.287C1037.71 376.466 1035.54 378.031 1034.2 379.391C1032.85 380.751 1032.33 381.887 1032.22 382.162L1034.55 383.172L1034.88 380.579C1034.79 380.568 1033.98 380.459 1032.67 380.457C1030.13 380.465 1025.68 380.856 1021.25 383.401C1019.04 384.672 1016.85 386.501 1015.01 389.045C1013.17 391.588 1011.69 394.83 1010.8 398.862L1013.26 399.442L1014.28 397.047C1014.08 396.967 1011.59 395.823 1008.04 395.812C1005.46 395.806 1002.26 396.471 999.307 398.746C996.349 401.016 993.777 404.791 992.116 410.523C988.909 421.55 985.762 439.038 985.76 459.774C985.76 473.698 987.184 489.077 990.997 504.895C995.156 522.163 996.507 531.907 996.511 541.786C996.522 553.993 994.375 566.803 992.627 593.866C991.064 618.141 985.5 671.703 980.331 719.122C978.069 739.849 975.766 760.572 973.421 781.29C972.501 789.422 971.741 796.071 971.214 800.686C970.686 805.303 970.387 807.877 970.387 807.884C970.23 809.241 971.113 810.499 972.405 810.761C972.491 810.774 1019.37 820.342 1064.33 820.347C1077.8 820.347 1091.09 819.492 1102.97 817.231C1104.19 816.998 1105.06 815.888 1105.03 814.601C1105.03 814.594 1104.97 811.617 1104.87 806.252C1104.11 768.688 1101.1 614.371 1101.1 550.273C1101.1 537.657 1101.22 528.482 1101.49 524.605L1098.97 524.42L1100.58 526.434L1098.97 524.42L1096.45 524.238C1096.17 528.473 1096.06 537.59 1096.05 550.273C1096.05 623.664 1099.99 814.701 1099.99 814.714L1102.51 814.659L1102.06 812.086C1090.62 814.266 1077.59 815.118 1064.33 815.118C1042.19 815.118 1019.42 812.747 1002.21 810.372C995.229 809.41 988.266 808.322 981.324 807.107C979.362 806.763 977.403 806.405 975.447 806.033C974.769 805.904 974.249 805.803 973.9 805.733L973.379 805.629L972.891 808.196L975.397 808.506C975.397 808.503 980.175 767.159 985.345 719.708C990.518 672.247 996.08 618.732 997.661 594.213C999.387 567.336 1001.55 554.672 1001.56 541.786C1001.56 531.359 1000.09 521.047 995.892 503.627C992.193 488.286 990.804 473.329 990.804 459.774C990.801 439.601 993.893 422.517 996.945 412.032C998.394 407.083 1000.39 404.433 1002.31 402.948C1004.24 401.47 1006.24 401.051 1008.04 401.043C1009.27 401.043 1010.37 401.254 1011.14 401.464C1011.52 401.569 1011.82 401.673 1012.02 401.745L1012.22 401.826L1012.26 401.841L1012.56 401.112L1012.25 401.837L1012.26 401.841L1012.56 401.112L1012.25 401.837C1012.93 402.149 1013.73 402.127 1014.4 401.778C1015.07 401.429 1015.56 400.778 1015.72 400.021C1016.47 396.622 1017.66 394.105 1019.05 392.186C1021.13 389.317 1023.7 387.726 1026.22 386.801C1028.73 385.884 1031.16 385.687 1032.67 385.689C1033.19 385.689 1033.59 385.711 1033.86 385.731L1034.16 385.757L1034.22 385.764L1034.23 385.628L1034.21 385.764H1034.22L1034.23 385.628L1034.21 385.764C1035.35 385.921 1036.43 385.275 1036.87 384.183L1035.38 383.532L1036.85 384.249L1036.87 384.183L1035.38 383.532L1036.85 384.249L1036.81 384.231L1036.85 384.251V384.249L1036.81 384.231L1036.85 384.251C1036.93 384.128 1038 381.922 1042.66 380.23C1045.63 379.167 1055.27 375.765 1065.35 372.041C1070.28 370.231 1075.19 368.371 1080.08 366.461C1084.6 364.68 1088.45 363.08 1090.98 361.846C1094.88 359.941 1098.68 359.41 1101.69 359.41C1103.54 359.41 1105.09 359.611 1106.16 359.806C1106.69 359.904 1107.1 360.002 1107.37 360.07L1107.66 360.15L1107.72 360.168L1107.74 360.1L1107.72 360.166V360.168L1107.74 360.1L1107.72 360.166C1108.41 360.391 1109.16 360.294 1109.79 359.897L1109.43 359.295L1109.78 359.899L1109.79 359.897L1109.43 359.295L1109.78 359.899C1109.82 359.875 1111.8 358.633 1114.77 357.421C1117.75 356.203 1121.72 355.036 1125.68 355.042C1127.51 355.042 1129.33 355.284 1131.08 355.856C1132.62 356.365 1133.75 357.153 1134.68 358.162C1136.08 359.668 1137 361.759 1137.53 363.99C1138.07 366.212 1138.23 368.527 1138.23 370.315C1138.23 371.292 1138.18 372.113 1138.14 372.676C1138.12 372.958 1138.1 373.178 1138.08 373.32L1138.06 373.475V373.506C1137.89 374.781 1138.64 375.995 1139.83 376.368C1142.6 377.226 1145.38 378.054 1148.17 378.85C1150.45 379.5 1152.92 380.179 1155.23 380.758C1157.54 381.337 1159.67 381.815 1161.35 382.066C1162.39 382.22 1163.96 382.659 1165.65 383.415C1168.2 384.548 1171.01 386.394 1173.1 388.933C1175.19 391.487 1176.61 394.644 1176.62 398.862C1176.62 400.708 1176.34 402.769 1175.67 405.079C1173.17 413.691 1168.27 423.27 1162.26 433.938C1156.25 444.609 1149.16 456.379 1142.35 469.512C1135.8 482.15 1124.53 495.469 1114.9 505.524C1110.09 510.558 1105.7 514.79 1102.51 517.757C1101.26 518.916 1100 520.065 1098.73 521.202C1098.28 521.599 1097.94 521.903 1097.7 522.106C1097.47 522.309 1097.36 522.409 1097.36 522.409C1097.1 522.639 1096.88 522.919 1096.72 523.232C1096.57 523.546 1096.47 523.888 1096.45 524.238L1098.97 524.42V524.42Z" fill="#100F0D"/>
<path d="M759.888 593.461C759.888 593.461 779.236 555.125 782.027 525.648C784.821 496.167 790.685 471.017 788.832 452.339C786.979 433.664 769.91 433.024 763.926 434.648C757.942 436.268 742.321 437.988 742.321 437.988C742.321 437.988 738.112 421.498 726.647 422.61C715.183 423.726 706.682 435.989 706.682 435.989C706.682 435.989 697.344 436.944 690.224 445.131C683.107 453.318 657.369 476.957 652.658 481.326C647.947 485.694 647.944 489.249 647.944 489.249C647.944 489.249 631.191 493.981 634.347 512.808C634.347 512.808 619.603 512.58 621.456 531.259C623.309 549.933 631.974 585.407 655.008 617.374C678.045 649.339 674.71 653.187 689.942 699.41C705.175 745.637 748.992 905.698 748.992 905.698C748.992 905.698 827.908 888.716 871.021 859.464C871.021 859.464 768.415 619.62 759.888 593.461V593.461Z" fill="#FAFAFA"/>
<path d="M724.559 459.303C724.559 459.303 741.538 484.045 774.366 473.256C774.366 473.256 753.219 488.744 737.95 478.689C737.95 478.689 729.367 469.9 724.559 459.303V459.303Z" fill="#D3D4D3"/>
<path d="M769.551 475.774C769.551 475.774 752.188 499.613 759.991 518.95C759.991 518.95 709.349 540.564 706.361 590.824C706.361 590.824 692.415 561.096 657.826 564.491C657.826 564.491 657.54 548.777 647.816 547.788C647.816 547.788 661.082 545.999 660.898 538.517C660.898 538.517 678.464 551.996 700.013 526.215L731.584 484.405C731.584 484.405 718.035 472.317 721.457 453.381C721.457 453.381 735.107 497.455 769.551 475.774V475.774Z" fill="#D3D4D3"/>
<path d="M666.849 637.456C666.849 637.456 683.445 641.264 704.045 628.631C704.045 628.631 689.094 640.44 700.075 671.836L686.125 647.711L719.942 802.585C719.942 802.585 683.614 668.415 666.849 637.456ZM621.456 531.259C619.603 512.581 634.345 512.808 634.345 512.808C631.191 493.981 647.944 489.249 647.944 489.249C647.944 489.249 647.947 485.694 652.658 481.326C657.369 476.957 683.107 453.318 690.224 445.131C697.344 436.944 706.682 435.989 706.682 435.989C706.682 435.989 715.183 423.726 726.647 422.61C738.112 421.498 742.321 437.988 742.321 437.988C742.321 437.988 757.942 436.268 763.926 434.648C769.91 433.024 786.979 433.664 788.832 452.339C789.289 456.935 789.276 461.924 788.957 467.268L788.552 467.125C788.552 467.125 787.092 443.37 766.706 445.691C746.321 448.012 723.148 457.945 723.148 457.945C723.148 457.945 721.62 455.458 720.714 452.37C721.188 452.99 721.457 453.381 721.457 453.381L720.611 452.016C719.472 447.859 719.579 442.764 725.97 441.137L736.023 439.086C736.023 439.086 727.538 425.082 712.475 438.892L720.611 452.016L720.714 452.37C717.757 448.515 706.459 435.486 696.999 447.794C686.019 462.082 670.565 475.704 670.565 475.704L689.256 467.607C689.256 467.607 702.144 468.289 709.231 484.259C709.231 484.259 695.451 471.337 677.361 480.217C659.268 489.098 642.254 494.531 646.028 509.981L671.419 502.389C671.419 502.389 684.009 498.293 694.946 517.444C694.946 517.444 681.303 506.408 666.722 512.269C652.141 518.132 633.501 524.52 633.501 524.52C633.501 524.52 639.32 536.494 652.999 541.101C652.999 541.101 635.107 538.429 628.13 530.604C628.13 530.604 637.654 551.305 650.915 554.721C650.915 554.721 633.907 556.439 626.93 548.617C626.93 548.617 640.711 592.403 650.321 610.511C630.784 580.449 623.177 548.606 621.456 531.259V531.259Z" fill="#EE2448"/>
<path d="M742.636 440.58L727.819 442.305L728.183 442.225C727.525 442.458 726.896 442.765 726.308 443.141C725.698 443.548 725.112 443.996 724.641 444.528C723.675 445.568 723.047 446.876 722.84 448.28C722.565 449.709 722.818 451.319 723.224 452.902C723.671 454.517 724.366 456.026 725.164 457.664C728.467 464.222 731.911 470.706 737.109 475.352C739.674 477.661 742.692 479.399 745.978 480.227C749.249 481.135 752.755 481.043 756.173 480.44C763.059 479.164 769.507 475.647 775.532 471.715L775.548 471.705C775.635 471.649 775.732 471.61 775.834 471.593C775.937 471.575 776.041 471.578 776.142 471.602C776.243 471.626 776.338 471.67 776.421 471.731C776.504 471.793 776.575 471.871 776.627 471.96C776.735 472.139 776.772 472.352 776.731 472.557C776.689 472.762 776.571 472.943 776.401 473.065C770.399 477.274 763.941 481.146 756.608 482.791C752.97 483.567 749.102 483.823 745.363 482.936C741.614 482.133 738.095 480.259 735.16 477.792C729.214 472.824 725.38 466.017 721.836 459.562C720.063 456.232 718.181 452.307 718.716 447.694C718.969 445.434 719.96 443.177 721.449 441.48C722.178 440.611 723.028 439.9 723.913 439.271C724.844 438.648 725.678 438.169 726.886 437.726L727.12 437.665L727.249 437.645L742.004 435.394C743.384 435.185 744.663 436.173 744.861 437.603C745.06 439.031 744.102 440.36 742.722 440.572L742.636 440.58V440.58ZM633.664 510.295L668.918 499.917L668.743 499.977C670.342 499.432 671.624 499.238 673.075 499.063C674.488 498.957 675.912 498.91 677.326 499.079C680.159 499.354 682.947 500.234 685.46 501.614C688.021 502.951 690.12 504.954 692.02 507.028C692.869 508.144 693.838 509.195 694.522 510.406C695.275 511.591 696.02 512.783 696.605 513.86L704.491 527.214C707.065 531.785 709.675 536.465 711.146 542.029C711.833 544.794 712.229 547.933 711.392 551.11C710.982 552.682 710.299 554.17 709.374 555.505C708.44 556.798 707.338 557.883 706.173 558.813C703.974 560.432 701.741 561.975 699.285 563.144C698.102 563.81 696.804 564.249 695.566 564.802C694.257 565.196 693 565.726 691.643 565.979C688.995 566.688 686.187 566.872 683.392 566.734C680.576 566.569 677.786 565.73 675.183 564.491C670.026 561.755 666.289 556.915 664.116 551.798L666.618 553.328H666.616C663.757 553.319 661.281 552.95 658.704 552.398C656.168 551.843 653.69 551.049 651.304 550.027C648.917 549.033 646.642 547.788 644.517 546.314C642.358 544.902 640.45 543.135 638.634 541.336C638.507 541.209 638.434 541.038 638.43 540.859C638.427 540.679 638.493 540.505 638.614 540.373C638.722 540.253 638.871 540.178 639.032 540.163C639.193 540.148 639.354 540.194 639.482 540.292L639.515 540.32C641.471 541.815 643.462 543.24 645.645 544.293C647.776 545.401 650.021 546.277 652.34 546.904C654.624 547.551 656.965 547.978 659.33 548.18C661.642 548.388 664.132 548.386 666.216 548.114H666.217L666.292 548.11C667.359 548.046 668.31 548.692 668.721 549.646C670.606 554.051 673.586 557.733 677.44 559.804C679.418 560.718 681.522 561.391 683.76 561.516C685.984 561.612 688.273 561.496 690.519 560.882C695.038 559.859 699.342 557.492 703.147 554.638C703.98 553.966 704.714 553.231 705.304 552.427C705.86 551.619 706.271 550.721 706.519 549.773C707.041 547.873 706.831 545.62 706.265 543.365C705.08 538.814 702.656 534.304 700.149 529.897L692.263 516.539C691.611 515.342 690.974 514.351 690.344 513.355C689.761 512.299 688.954 511.468 688.256 510.527C686.7 508.846 685.041 507.24 683.072 506.23C681.145 505.169 679.024 504.508 676.835 504.285C675.744 504.147 674.633 504.194 673.535 504.269C672.48 504.381 671.259 504.617 670.459 504.887L670.292 504.946L670.281 504.949L635.027 515.326C633.686 515.72 632.292 514.915 631.916 513.524C631.54 512.136 632.323 510.689 633.664 510.295V510.295Z" fill="#23295B"/>
<path d="M660.58 533.666C661.713 536.664 663.093 539.473 664.766 541.914C666.47 544.341 668.405 546.47 670.686 548.206C673.01 549.871 675.543 551.29 678.351 552.34C679.73 552.911 681.212 553.255 682.669 553.794C684.16 554.182 685.684 554.515 687.236 555.042L687.308 555.065C687.66 555.185 687.852 555.579 687.735 555.945C687.699 556.063 687.631 556.168 687.539 556.25C687.448 556.333 687.335 556.388 687.214 556.411C685.596 556.709 683.941 556.878 682.274 556.98C680.621 556.857 678.911 556.905 677.255 556.512C676.426 556.32 675.581 556.157 674.756 555.922C673.917 555.733 673.137 555.313 672.322 555.012C670.673 554.439 669.199 553.399 667.721 552.433C664.829 550.272 662.537 547.409 661.06 544.115C659.574 540.858 658.882 537.291 659.336 533.745C659.345 533.661 659.37 533.58 659.41 533.506C659.451 533.432 659.506 533.366 659.571 533.313C659.637 533.261 659.713 533.222 659.794 533.198C659.875 533.175 659.96 533.168 660.044 533.178C660.281 533.208 660.471 533.372 660.55 533.587L660.58 533.666V533.666ZM649.29 491.454C649.292 491.454 649.661 491.211 650.338 490.77C652.703 489.233 658.773 485.32 665.305 481.402C668.57 479.442 671.951 477.48 675.027 475.818C678.1 474.155 680.889 472.79 682.856 472.046C686.168 470.785 688.918 470.025 691.298 470.148C692.45 470.199 693.583 470.464 694.638 470.929C696.319 471.663 698.15 473.008 700.212 475.354C702.273 477.695 704.538 481.023 707.04 485.564C712.215 494.955 715.825 502.579 718.136 507.839C719.017 509.837 719.858 511.851 720.66 513.882C720.929 514.571 721.127 515.09 721.255 515.436L721.395 515.822L721.436 515.936L723.807 515.038L721.312 515.424L721.441 515.404L721.31 515.422L721.312 515.424L721.441 515.404L721.31 515.422C721.325 515.521 721.534 517.173 721.422 519.495C721.289 522.425 720.622 526.376 718.629 529.662C717.633 531.314 716.321 532.816 714.532 534.056C712.741 535.292 710.454 536.278 707.439 536.795C706.063 537.03 705.128 538.375 705.349 539.801C705.572 541.225 706.866 542.189 708.242 541.956C711.88 541.336 714.896 540.085 717.322 538.402C720.976 535.881 723.235 532.436 724.557 529.061C725.887 525.677 726.336 522.339 726.462 519.735C726.6 516.791 726.32 514.772 726.305 514.651C726.281 514.477 726.239 514.305 726.181 514.139C726.139 514.019 721.938 502.036 711.424 482.959C707.921 476.613 704.758 472.271 701.535 469.369C699.924 467.922 698.286 466.839 696.61 466.107C695.009 465.405 693.293 465.004 691.547 464.924C687.99 464.766 684.633 465.82 681.138 467.136C678.452 468.157 675.043 469.887 671.33 471.933C660.233 478.063 646.624 487.024 646.597 487.042C645.418 487.817 645.066 489.433 645.81 490.653C646.554 491.87 648.112 492.229 649.29 491.454V491.454ZM707.084 438.569L706.879 437.259L707.025 438.579L707.084 438.569L706.879 437.259L707.025 438.579C707.025 438.579 707.157 438.561 707.413 438.574C708.105 438.614 709.586 438.828 711.468 440.244C713.345 441.665 715.676 444.355 717.797 449.588C718.334 450.918 719.812 451.54 721.099 450.979C722.384 450.416 722.989 448.882 722.45 447.552C720.067 441.651 717.196 438.089 714.451 436.015C711.709 433.936 709.15 433.413 707.662 433.35C707.201 433.322 706.738 433.341 706.281 433.408C704.905 433.644 703.97 434.988 704.191 436.414C704.412 437.84 705.708 438.805 707.084 438.569V438.569Z" fill="#23295B"/>
<path d="M724.031 515.245C725.175 515.129 726.341 515.087 727.474 514.93L729.13 514.551L729.962 514.367L730.736 514.054C732.887 513.379 734.682 512.012 736.154 510.373C737.611 508.702 738.636 506.595 739.225 504.314C739.804 502.064 740.034 499.527 739.855 497.279L739.945 497.646L731.606 474.233C731.372 473.575 731.697 472.844 732.333 472.599C732.482 472.543 732.641 472.517 732.8 472.522C732.959 472.527 733.116 472.564 733.261 472.631C733.406 472.697 733.536 472.791 733.645 472.908C733.753 473.025 733.837 473.162 733.892 473.312L742.862 496.475L742.865 496.484L742.952 496.841C743.257 499.723 743.063 502.401 742.455 505.155C741.834 507.87 740.654 510.55 738.83 512.767C737.012 514.949 734.65 516.773 732.049 517.691L731.089 518.1L730.102 518.36L728.127 518.866C726.803 519.094 725.476 519.191 724.148 519.35C723.064 519.477 722.086 518.672 721.965 517.548C721.844 516.423 722.624 515.407 723.709 515.278L723.734 515.275L724.031 515.245Z" fill="#23295B"/>
<path d="M660.404 551.684L662.739 557.638C662.739 557.638 653.901 566.512 641.695 564.297C641.695 564.297 694.103 565.22 706.361 590.824C706.361 590.824 700.592 543.824 747.375 512.684C747.375 512.684 742.184 492.029 765.095 478.352C765.095 478.352 756.851 483.84 747.682 482.318C747.682 482.318 748.144 485.826 739.679 491.4C739.679 491.4 749.602 508.156 727.781 516.951C727.781 516.951 724.562 515.013 724.228 519.875C723.897 524.736 722.784 534.626 712.076 538.157C712.076 538.157 707.022 538.232 708.767 544.672C710.51 551.114 702.867 565.583 679.795 563.539C679.795 563.539 675.795 566.633 667.641 551.311L660.404 551.684V551.684ZM757.264 607.995C757.264 607.995 774.93 662.173 775.341 663.347C775.752 664.523 748.685 604.593 748.685 604.593C728.416 610.941 723.528 602.482 723.528 602.482C779.358 567.359 785.442 489.216 785.442 489.216L786.327 491.279C784.88 501.884 783.189 513.391 782.027 525.648C779.236 555.125 759.888 593.461 759.888 593.461C768.415 619.621 871.021 859.464 871.021 859.464C862.84 865.016 853.365 870.126 843.387 874.76C819.608 778.009 757.264 607.995 757.264 607.995ZM647.374 607.053C647.374 607.053 670.477 641.876 701.362 620.859C701.362 620.859 687.342 636.815 663.12 630.026L647.374 607.053V607.053ZM743.891 437.943L743.586 440.539L743.742 439.218L743.554 440.535L743.586 440.539L743.742 439.218L743.554 440.535C743.556 440.536 744.074 440.612 744.907 440.943C746.157 441.442 748.084 442.491 750.032 444.736C751.976 446.986 753.972 450.458 755.246 455.968L757.701 455.353L756.841 452.898L756.834 452.899C756.687 452.955 754.875 453.619 752.275 454.22C749.677 454.822 746.287 455.352 743.048 455.194C741.267 455.11 739.538 454.821 738.008 454.271C736.475 453.72 735.151 452.924 734.061 451.804C731.266 448.93 729.818 446.664 729.087 445.061C728.356 443.454 728.324 442.525 728.338 442.155L728.36 441.956L727.213 441.68L728.293 442.149L728.36 441.956L727.213 441.68L728.293 442.149L725.968 441.139L726.389 443.715L744.311 440.52L743.891 437.943L743.586 440.539L743.891 437.943L743.472 435.364L724.183 438.805L723.644 440.128C723.541 440.38 723.341 440.992 723.299 441.915C723.235 443.192 723.482 445.038 724.525 447.314C725.569 449.595 727.391 452.322 730.5 455.522C732.204 457.276 734.236 458.459 736.344 459.215C738.455 459.971 740.652 460.316 742.8 460.418C746.832 460.606 750.716 459.948 753.632 459.261C756.546 458.568 758.488 457.837 758.56 457.809L760.678 457.006L760.155 454.737C758.192 446.151 754.378 441.176 750.922 438.493C747.468 435.802 744.499 435.384 744.198 435.345L743.833 435.3L743.472 435.364L743.891 437.943V437.943Z" fill="#23295B"/>
<path d="M759.888 593.461L762.123 594.666C762.148 594.616 767.017 584.969 772.249 571.582C777.478 558.186 783.089 541.093 784.539 525.895C786.696 503.049 790.751 482.721 791.569 465.689C791.797 460.889 791.766 456.343 791.342 452.063C790.964 448.248 789.986 445.017 788.557 442.342C786.418 438.32 783.274 435.622 779.974 433.968C776.666 432.307 773.2 431.633 770.145 431.486C767.452 431.361 765.092 431.635 763.296 432.119C761.947 432.483 759.891 432.892 757.628 433.272C754.225 433.847 750.323 434.378 747.282 434.762C745.544 434.982 743.804 435.191 742.063 435.388L742.321 437.988L744.761 437.312C744.719 437.171 743.729 433.252 741.29 429.094C740.063 427.015 738.467 424.862 736.349 423.127C734.239 421.395 731.542 420.1 728.386 419.957C727.73 419.926 727.073 419.942 726.42 420.006C723.151 420.325 720.16 421.428 717.528 422.855C713.577 425 710.404 427.877 708.179 430.221C705.958 432.565 704.69 434.389 704.634 434.468L706.683 435.989L706.443 433.386C706.283 433.404 703.744 433.673 700.239 435.044C696.74 436.413 692.255 438.899 688.353 443.383C686.669 445.322 683.743 448.322 680.279 451.734C669.868 461.991 654.519 476.097 650.979 479.378C648.547 481.631 647.148 483.794 646.374 485.531C645.597 487.269 645.448 488.566 645.425 489.079L645.42 489.269L647.944 489.249L647.287 486.725C647.097 486.786 643.501 487.798 639.681 490.818C637.776 492.331 635.813 494.364 634.274 497.049C632.734 499.73 631.642 503.064 631.457 507.016C631.365 508.952 631.486 511.034 631.861 513.265L634.347 512.808L634.393 510.195C634.161 510.204 630.716 510.127 626.917 512.187C624.718 513.383 622.864 515.125 621.534 517.246C620.012 519.655 618.988 522.819 618.803 526.775C618.736 528.363 618.783 529.954 618.946 531.535C619.899 541.109 622.569 554.818 627.914 570.224C633.264 585.625 641.292 602.713 652.985 618.942C658.712 626.89 662.771 633.05 665.867 638.507C670.508 646.695 673.027 653.318 675.869 662.383C678.705 671.439 681.825 682.875 687.555 700.263C695.134 723.261 709.904 774.855 722.757 820.628C730.125 846.884 737.424 873.159 744.652 899.454C745.88 903.92 746.563 906.412 746.565 906.419C746.924 907.731 748.207 908.535 749.498 908.258C749.546 908.247 769.336 903.988 794.564 896.052C819.801 888.103 850.446 876.531 872.398 861.649C873.439 860.943 873.83 859.571 873.328 858.396C873.326 858.394 872.927 857.459 872.175 855.698C866.524 842.477 841.029 782.784 815.949 723.337C803.409 693.615 790.974 663.951 781.176 640.196C776.277 628.317 772.039 617.914 768.779 609.727C765.521 601.549 763.23 595.539 762.279 592.616L759.888 593.461L762.123 594.666L759.888 593.461L757.498 594.306C758.615 597.725 761.149 604.321 764.779 613.409C790.161 676.916 868.708 860.517 868.715 860.53L871.021 859.464L869.644 857.277C848.483 871.649 818.113 883.192 793.115 891.049C782.63 894.34 772.056 897.341 761.405 900.047C758.252 900.85 755.091 901.621 751.923 902.359C750.779 902.624 749.633 902.883 748.486 903.137L748.992 905.698L751.42 904.976C751.418 904.972 740.464 864.953 727.601 819.15C714.738 773.337 699.983 721.786 692.331 698.558C684.736 675.52 681.79 663.078 677.76 652.105C675.745 646.626 673.451 641.54 670.219 635.845C666.986 630.147 662.821 623.838 657.032 615.803C645.691 600.066 637.869 583.433 632.663 568.438C627.457 553.449 624.867 540.082 623.965 530.981C623.828 529.663 623.788 528.337 623.844 527.014C624.001 523.83 624.774 521.664 625.757 520.095C626.42 519.034 627.29 518.117 628.314 517.399C629.712 516.412 631.254 515.898 632.44 515.653C632.91 515.555 633.385 515.485 633.863 515.446C633.985 515.436 634.108 515.43 634.231 515.426L634.306 515.424L634.313 515.425L634.325 513.986L634.299 515.424L634.313 515.425L634.325 513.986L634.299 515.424C634.674 515.427 635.045 515.346 635.385 515.187C635.725 515.028 636.024 514.795 636.262 514.505C636.504 514.207 636.68 513.861 636.778 513.49C636.876 513.119 636.894 512.731 636.831 512.352C636.518 510.473 636.423 508.782 636.496 507.256C636.648 504.143 637.469 501.708 638.61 499.71C640.318 496.721 642.829 494.705 644.948 493.451C645.804 492.943 646.696 492.499 647.618 492.124C647.953 491.991 648.215 491.898 648.386 491.839L648.57 491.78L648.605 491.77L648.461 491.237L648.599 491.772L648.605 491.77L648.461 491.237L648.599 491.772C649.703 491.459 650.471 490.411 650.467 489.226L648.818 489.24L650.464 489.318L650.467 489.226L648.818 489.24L650.464 489.318L650.466 489.315C650.503 489.137 650.685 486.687 654.337 483.271C656.684 481.096 664.309 474.082 672.235 466.591C676.2 462.842 680.241 458.974 683.749 455.52C687.261 452.058 690.221 449.033 692.096 446.879C695.314 443.175 699.057 441.091 702.008 439.937C703.184 439.473 704.394 439.101 705.628 438.825C706.068 438.728 706.411 438.666 706.633 438.633L706.876 438.598L706.924 438.591L706.894 438.292L706.92 438.593L706.924 438.591L706.894 438.292L706.92 438.593C707.282 438.554 707.631 438.438 707.943 438.251C708.256 438.064 708.524 437.812 708.729 437.511L708.498 437.339L708.729 437.511L708.498 437.339L708.729 437.511C708.781 437.432 710.852 434.503 714.173 431.548C715.833 430.069 717.801 428.587 719.957 427.432C722.115 426.274 724.449 425.449 726.875 425.215C727.315 425.171 727.734 425.161 728.138 425.181C730.106 425.28 731.729 426.035 733.217 427.24C735.439 429.036 737.189 431.918 738.293 434.363C738.852 435.583 739.256 436.684 739.518 437.469C739.647 437.859 739.743 438.172 739.802 438.38L739.868 438.611L739.882 438.661L739.883 438.669L740.797 438.411L739.882 438.665L739.883 438.669L740.797 438.411L739.882 438.665C740.2 439.909 741.345 440.724 742.579 440.589C745.456 440.265 748.33 439.908 751.199 439.519C753.613 439.196 756.021 438.834 758.423 438.434C760.771 438.038 762.913 437.622 764.556 437.178C765.729 436.855 767.7 436.601 769.897 436.711C773.252 436.865 777.13 437.836 780.181 440.189C781.715 441.367 783.067 442.879 784.138 444.885C785.208 446.892 786.003 449.407 786.323 452.615C786.711 456.546 786.75 460.836 786.53 465.449C785.76 481.841 781.716 502.246 779.518 525.401C778.174 539.681 772.717 556.495 767.573 569.633C765.427 575.117 763.128 580.539 760.677 585.894C759.958 587.467 759.222 589.033 758.471 590.591L757.863 591.837L757.654 592.255C757.495 592.57 757.399 592.913 757.372 593.265C757.345 593.617 757.388 593.971 757.498 594.306L759.888 593.461V593.461Z" fill="#23295B"/>
<path d="M823.968 444.615C823.968 444.615 775.621 408.135 753.963 372.065C732.306 335.993 709.355 307.525 700.283 282.271C691.212 257.018 712.739 244.872 721.418 242.988C730.095 241.104 751.207 232.955 751.207 232.955C751.207 232.955 746.501 208.948 761.905 202.775C777.31 196.602 795.745 206.739 795.745 206.739C795.745 206.739 808.319 201.773 822.48 207.582C836.641 213.393 884.18 226.729 892.909 229.224C901.636 231.719 903.822 236.288 903.822 236.288C903.822 236.288 928.232 231.263 935.726 257.579C935.726 257.579 954.515 247.505 963.587 272.76C972.658 298.015 983.281 349.395 973.3 405.801C963.318 462.204 969.959 464.941 978.74 534.514C987.522 604.086 1029.39 839.063 1029.39 839.063C1029.39 839.063 917.647 869.569 844.35 860.538C844.35 860.538 829.059 483.923 823.968 444.615V444.615Z" fill="#EE2448"/>
<path d="M787.082 248.59C787.082 248.59 780.45 291.685 731.681 299.581C731.681 299.581 768.33 305.479 781.773 282.413C781.773 282.413 787.404 265.416 787.082 248.59Z" fill="#D51F46"/>
<path d="M739.406 299.629C739.406 299.629 776.321 318.776 778.152 348.831C778.152 348.831 856.433 343.04 891.085 405.714C891.085 405.714 890.766 358.218 937.262 339.641C937.262 339.641 927.995 319.236 939.873 311.511C939.873 311.511 921.741 318.01 917.392 308.262C917.392 308.262 903.099 337.259 859.624 318.383L793.451 285.546C793.451 285.546 803.438 261.005 787.436 238.917C787.436 238.917 796.929 304.669 739.406 299.629Z" fill="#D51F46"/>
<path d="M970.408 439.49C970.408 439.49 951.432 455.399 917.237 452.813C917.237 452.813 943.675 458.087 948.823 505.761L951.945 465.47L1003.47 687.141C1003.47 687.141 967.863 490.441 970.408 439.49V439.49ZM963.587 272.76C954.515 247.505 935.726 257.578 935.726 257.578C928.23 231.263 903.822 236.287 903.822 236.287C903.822 236.287 901.636 231.718 892.909 229.224C884.18 226.729 836.641 213.393 822.48 207.582C808.319 201.773 795.745 206.739 795.745 206.739C795.745 206.739 777.308 196.602 761.905 202.775C746.501 208.947 751.207 232.955 751.207 232.955C751.207 232.955 730.095 241.104 721.416 242.988C712.739 244.872 691.212 257.016 700.283 282.27C702.515 288.485 705.589 294.892 709.275 301.559L709.708 301.104C709.708 301.104 697.018 269.577 724.618 259.04C752.218 248.503 788.061 245.909 788.061 245.909C788.061 245.909 788.499 241.694 787.769 237.12C787.538 238.236 787.436 238.917 787.436 238.917L787.684 236.597C786.596 230.493 783.339 224.009 774.133 226.159L759.966 230.187C759.966 230.187 762.277 206.543 790.085 214.317L787.684 236.597C787.716 236.773 787.742 236.946 787.769 237.12C789.202 230.2 795.724 205.945 815.413 215.502C838.273 226.6 866.47 233.868 866.47 233.868L837.506 235.856C837.506 235.856 821.375 245.283 822.065 270.531C822.065 270.531 831.835 244.763 860.512 244.185C889.185 243.608 914.363 239.31 918.991 261.692L881.733 268.765C881.733 268.765 863.056 271.848 860.752 303.742C860.752 303.742 871.505 280.493 893.822 278.362C916.139 276.231 943.986 272.081 943.986 272.081C943.986 272.081 943.856 291.348 929.118 306.35C929.118 306.35 950.456 291.039 954.616 276.349C954.616 276.349 955.079 309.295 940.145 322.487C940.145 322.487 963.039 313.414 967.2 298.721C967.2 298.721 976.351 364.191 975.112 393.865C981.769 342.23 972.013 296.219 963.587 272.76V272.76Z" fill="#FAFAFA"/>
<path d="M750.381 230.482L770.671 223.479L770.772 223.444L771.031 223.383C772.691 223.171 774.035 223.215 775.521 223.387C776.972 223.594 778.424 223.92 779.811 224.514C782.6 225.634 785.09 227.727 786.719 230.309C787.089 230.971 787.556 231.598 787.831 232.294L788.665 234.381C788.932 235.077 789.04 235.8 789.231 236.511C789.389 237.223 789.611 237.933 789.651 238.649C790.071 241.491 790.014 244.381 789.912 247.082C789.376 257.735 788.672 268.933 784.2 279.13C783.1 281.663 781.735 284.09 780.096 286.312C778.483 288.548 776.607 290.6 774.489 292.327C770.324 295.905 765.285 298.14 760.194 299.565C749.892 302.34 739.26 301.713 728.995 300.338C728.566 300.281 728.264 299.873 728.319 299.428C728.34 299.221 728.443 299.031 728.603 298.899C728.764 298.767 728.97 298.704 729.177 298.723L729.195 298.725C739.364 299.841 749.835 300.155 759.58 297.256C764.397 295.778 769.041 293.566 772.78 290.185C774.692 288.554 776.356 286.636 777.789 284.551C779.246 282.458 780.462 280.208 781.413 277.842C785.356 268.278 785.847 257.551 786.125 246.92C786.16 244.27 786.141 241.781 785.726 239.325C785.683 238.694 785.473 238.129 785.331 237.542C785.16 236.968 785.065 236.352 784.836 235.813L784.147 234.204C783.93 233.66 783.558 233.235 783.28 232.743C782.032 230.881 780.301 229.5 778.255 228.723C777.244 228.312 776.143 228.098 775.034 227.963C773.955 227.851 772.698 227.88 771.794 228.017L772.154 227.923L752.033 235.426C750.721 235.915 749.276 235.208 748.806 233.85C748.333 232.49 749.014 230.991 750.324 230.504L750.381 230.482V230.482ZM936.19 260.149L884.559 270.188H884.547L884.376 270.215C883.002 270.426 881.279 270.944 879.775 271.527C878.253 272.186 876.74 272.893 875.362 273.834C872.566 275.639 870.151 278.012 868.232 280.778C866.235 283.507 865.041 286.795 864.046 290.102C863.713 291.824 863.177 293.486 863.068 295.273C862.865 297.022 862.652 298.769 862.55 300.711C862.002 308.262 861.158 315.72 860.612 323.126C860.099 330.498 859.729 337.962 861.036 344.826C861.716 348.214 862.874 351.442 864.887 353.759C865.877 354.916 867.065 355.887 868.396 356.627C869.757 357.328 871.254 357.819 872.824 358.148C876.224 358.692 879.684 359.168 883.132 359.044C884.864 359.118 886.567 358.834 888.285 358.749C889.962 358.419 891.695 358.303 893.324 357.793C896.67 357.07 899.789 355.662 902.694 353.996C905.598 352.285 908.007 349.921 910.077 347.308C913.946 341.826 915.557 334.812 915.265 327.726C915.221 326.615 915.855 325.637 916.787 325.226L916.853 325.196H916.855C919.822 324.03 922.98 322.31 925.842 320.417C928.762 318.496 931.498 316.309 934.014 313.882C935.322 312.703 936.466 311.36 937.675 310.068C938.766 308.681 939.957 307.354 940.925 305.857C943.047 302.984 944.681 299.775 946.22 296.507L946.238 296.468C946.274 296.388 946.325 296.317 946.39 296.257C946.454 296.198 946.529 296.153 946.612 296.123C946.694 296.094 946.781 296.082 946.869 296.087C946.956 296.093 947.041 296.116 947.119 296.155C947.268 296.233 947.384 296.364 947.443 296.522C947.503 296.679 947.503 296.853 947.443 297.011C946.16 300.486 944.745 303.966 942.799 307.147C941.918 308.8 940.806 310.288 939.777 311.851C938.632 313.314 937.54 314.84 936.274 316.204C933.827 319.014 931.127 321.592 928.206 323.906C925.254 326.235 922.266 328.278 918.724 330.055H918.72L920.306 327.525C920.644 335.384 918.854 343.787 914.099 350.467C911.609 353.66 908.658 356.49 905.251 358.504C901.855 360.473 898.244 362.06 894.495 362.881C892.648 363.445 890.743 363.591 888.865 363.945C886.973 364.052 885.079 364.346 883.189 364.274C879.392 364.401 875.642 363.899 871.9 363.292C869.925 362.883 867.947 362.248 866.068 361.266C864.181 360.226 862.497 358.852 861.1 357.212C858.257 353.896 856.887 349.785 856.096 345.886C854.614 337.978 855.076 330.276 855.58 322.731C856.139 315.176 856.983 307.728 857.518 300.318C857.611 298.513 857.837 296.535 858.068 294.562C858.202 292.589 858.789 290.654 859.183 288.705C860.317 284.885 861.737 281.04 864.122 277.744C866.42 274.421 869.35 271.549 872.696 269.392C874.35 268.274 876.146 267.421 877.961 266.646C879.85 265.936 881.605 265.353 883.814 265.017L883.63 265.045L935.261 255.006C936.63 254.741 937.947 255.676 938.205 257.095C938.462 258.516 937.561 259.883 936.19 260.149V260.149Z" fill="#23295B"/>
<path d="M916.223 301.196C918.619 305.514 919.715 310.48 919.692 315.515C919.681 320.549 918.483 325.652 916.187 330.162C915.598 331.274 914.895 332.317 914.251 333.395C913.642 334.504 912.834 335.447 912.024 336.386C911.194 337.301 910.488 338.344 909.559 339.139C908.669 339.977 907.731 340.759 906.821 341.562C905.938 342.403 904.915 343.038 903.906 343.689L900.892 345.614C898.785 346.663 896.633 347.618 894.442 348.478C894.36 348.509 894.272 348.523 894.184 348.52C894.096 348.517 894.009 348.495 893.929 348.458C893.85 348.42 893.778 348.367 893.719 348.302C893.661 348.236 893.616 348.159 893.587 348.076C893.539 347.944 893.531 347.8 893.565 347.664C893.599 347.527 893.673 347.404 893.778 347.31L893.835 347.258C895.593 345.706 897.418 344.35 899.178 342.94L901.658 340.643C902.464 339.864 903.363 339.204 904.057 338.325C904.803 337.502 905.522 336.659 906.285 335.873C907.076 335.103 907.613 334.125 908.29 333.271C909.667 331.568 910.669 329.63 911.737 327.75C912.145 326.742 912.615 325.77 913.065 324.783C913.478 323.781 913.743 322.721 914.096 321.693C914.738 319.614 915.151 317.455 915.432 315.257C915.972 310.865 915.819 306.258 915.075 301.702L915.062 301.63C915.033 301.463 915.07 301.291 915.166 301.15C915.262 301.01 915.408 300.913 915.575 300.88C915.702 300.859 915.833 300.878 915.949 300.935C916.065 300.992 916.161 301.083 916.223 301.196V301.196ZM904.084 233.687C904.039 233.686 875.519 230.576 857.184 230.573C853.583 230.573 850.37 230.691 847.762 230.991C843.946 231.436 840.383 232.021 837.077 233.232C834.603 234.14 832.275 235.418 830.205 237.241C827.09 239.978 824.65 243.885 822.911 249.234C821.165 254.593 820.061 261.433 819.547 270.376C818.979 280.298 818.785 288.895 818.785 296.02C818.785 311.472 819.7 319.994 819.709 320.083C819.73 320.269 819.78 320.498 819.842 320.677C819.906 320.843 821.884 326.565 826.501 332.428C828.813 335.356 831.8 338.327 835.58 340.588C839.354 342.85 843.941 344.374 849.259 344.37C852.36 344.37 855.699 343.857 859.266 342.717C860.598 342.291 861.343 340.827 860.934 339.447C860.523 338.067 859.111 337.292 857.78 337.718C854.651 338.718 851.824 339.139 849.259 339.139C844.866 339.133 841.218 337.914 838.099 336.057C833.434 333.277 830.002 328.977 827.781 325.338C826.869 323.85 826.052 322.305 825.335 320.714C825.132 320.263 824.939 319.808 824.757 319.348L824.623 318.998L824.595 318.918L824.589 318.903L824.013 319.121L824.591 318.905L824.589 318.903L824.013 319.121L824.591 318.905L822.217 319.791L824.723 319.499L824.716 319.418C824.623 318.52 823.829 310.306 823.829 296.02C823.829 288.995 824.021 280.501 824.584 270.686C825.022 262.995 825.921 257.064 827.195 252.541C828.151 249.147 829.313 246.551 830.627 244.549C832.606 241.55 834.884 239.805 837.777 238.553C840.664 237.315 844.195 236.664 848.323 236.19C850.619 235.922 853.695 235.802 857.184 235.802C866.101 235.802 877.73 236.572 887.09 237.345C891.772 237.73 895.892 238.118 898.842 238.408C900.315 238.552 901.496 238.673 902.307 238.756C903.119 238.841 903.557 238.889 903.558 238.889C904.943 239.041 906.186 237.998 906.33 236.561C906.476 235.125 905.47 233.837 904.084 233.687V233.687ZM795.001 204.24C794.672 204.343 791.771 205.356 788.958 208.949C786.139 212.537 783.554 218.621 783.567 228.336C783.567 229.504 783.604 230.726 783.681 232.004C783.768 233.446 784.966 234.542 786.356 234.451C787.746 234.361 788.803 233.119 788.716 231.678C788.648 230.565 788.614 229.451 788.613 228.336C788.625 219.541 790.868 214.828 792.876 212.243C793.889 210.951 794.868 210.18 795.56 209.737C795.907 209.516 796.18 209.377 796.347 209.302L796.512 209.232L796.525 209.226L796.062 207.807L796.489 209.239L796.525 209.226L796.062 207.807L796.489 209.239C797.819 208.813 798.566 207.348 798.155 205.967C797.744 204.587 796.333 203.814 795.001 204.24V204.24Z" fill="#23295B"/>
<path d="M824.064 324.753C822.314 325.449 820.597 326.229 818.808 326.84L816.033 327.539L814.643 327.883L813.199 328.017C812.236 328.097 811.273 328.206 810.307 328.246L807.379 328.014C806.393 328.003 805.453 327.626 804.492 327.416L803.057 327.039L801.696 326.445C798.032 324.904 794.859 322.336 792.354 319.324C791.11 317.805 789.967 316.209 789.003 314.506C787.982 312.786 787.124 310.974 786.441 309.094L786.342 308.651L786.331 308.553L782.924 272.878C782.787 271.44 783.8 270.16 785.186 270.018C786.571 269.876 787.808 270.924 787.945 272.363L787.949 272.398L790.872 308.121L790.763 307.581C791.838 310.611 793.622 313.773 795.704 316.351C797.817 318.962 800.41 321.09 803.346 322.374L804.44 322.882L805.597 323.192C806.375 323.362 807.119 323.712 807.936 323.712L810.341 323.947C811.152 323.917 811.969 323.829 812.783 323.779L814.009 323.694L815.223 323.4L817.656 322.828C819.256 322.304 820.825 321.612 822.416 321.02L822.692 320.917C823.719 320.536 824.847 321.088 825.216 322.151C825.579 323.201 825.063 324.356 824.064 324.753V324.753Z" fill="#23295B"/>
<path d="M926.1 324.875L926.749 334.085C926.749 334.085 943.54 339.635 957.858 328.689C957.858 328.689 891.129 364.645 891.085 405.714C891.085 405.714 869.675 341.423 790.51 332.398C790.51 332.398 784.514 302.384 746.711 299.985C746.711 299.985 760.662 301.582 771.504 293.538C771.504 293.538 773.058 298.358 787.347 299.912C787.347 299.912 784.875 328.052 818.29 324.89C818.29 324.89 821.234 320.262 824.641 326.294C828.048 332.326 835.543 344.313 851.456 341.752C851.456 341.752 857.992 338.493 859.7 347.937C861.409 357.38 880.093 370.924 908.469 352.99C908.469 352.99 915.502 354.317 916.579 329.195L926.1 324.875V324.875ZM836.248 461.571C836.248 461.571 846.782 542.986 846.974 544.77C847.166 546.555 845.178 451.503 845.178 451.503C875.099 446.224 876.187 432.1 876.187 432.1C782.965 423.953 727.246 327.462 727.246 327.462L727.372 330.702C735.733 343.385 744.96 357.066 753.963 372.065C775.621 408.135 823.968 444.615 823.968 444.615C829.059 483.923 844.35 860.538 844.35 860.538C858.262 862.252 873.559 862.54 889.214 861.883C860.43 721.644 836.248 461.571 836.248 461.571V461.571ZM976.777 387.462C976.777 387.462 968.459 447.582 915.919 441.037C915.919 441.037 943.702 452.262 970.643 427.461L976.777 387.462V387.462ZM749.162 233.938L747.779 231.752C747.567 231.896 745.214 233.538 742.891 237.221C740.565 240.897 738.315 246.636 738.322 254.68C738.322 258.066 738.714 261.856 739.645 266.078L740.147 268.353L742.386 268.095C742.505 268.076 749.244 267.301 756.809 264.423C760.593 262.978 764.592 261.009 768.085 258.254C771.568 255.506 774.58 251.919 776.098 247.302C778.015 241.462 778.681 237.003 778.681 233.59C778.683 230.456 778.111 228.205 777.444 226.686C776.778 225.164 776.027 224.395 775.783 224.179L774.735 223.239L748.085 231.543L747.779 231.752L749.162 233.938L749.888 236.442L774.859 228.663L774.133 226.159L772.485 228.137L773.332 227.12L772.389 228.046L772.485 228.137L773.332 227.12L772.389 228.046L772.431 228.098C772.627 228.377 773.622 229.781 773.636 233.59C773.636 236.291 773.102 240.196 771.321 245.615C770.214 248.987 767.962 251.773 765.029 254.093C760.643 257.569 754.789 259.839 750.061 261.16C748.108 261.709 746.131 262.166 744.136 262.531C743.413 262.663 742.687 262.779 741.959 262.878L741.85 262.893L741.823 262.897L742.105 265.495L744.564 264.912C743.71 261.042 743.367 257.645 743.367 254.68C743.374 247.638 745.282 243.006 747.115 240.081C748.034 238.624 748.943 237.599 749.598 236.955C749.924 236.634 750.189 236.409 750.356 236.273L750.534 236.134L750.563 236.114L749.972 235.219L750.545 236.125L750.563 236.114L749.972 235.219L750.545 236.125L749.162 233.938L749.888 236.442L749.162 233.938V233.938Z" fill="#23295B"/>
<path d="M823.968 444.615L825.453 442.5C825.453 442.5 825.275 442.367 824.922 442.096C822.272 440.06 810.04 430.524 795.978 417.321C781.917 404.127 766.027 387.224 756.104 370.683C745.223 352.558 734.045 336.388 724.497 321.653C714.946 306.924 707.043 293.615 702.647 281.359C701.212 277.362 700.619 273.801 700.619 270.617C700.621 266.689 701.518 263.321 702.971 260.374C705.146 255.962 708.638 252.497 712.26 250.011C715.863 247.527 719.615 246.044 721.934 245.547C724.254 245.043 727.24 244.165 730.482 243.124C740.181 240.002 752.065 235.413 752.088 235.405C753.251 234.957 753.927 233.695 753.68 232.433L753.676 232.414C753.621 232.13 753.051 228.965 753.053 224.874C753.048 221.305 753.498 217.047 754.961 213.43C755.689 211.618 756.658 209.968 757.927 208.577C759.199 207.185 760.769 206.036 762.814 205.214C766.057 203.914 769.505 203.397 772.914 203.397C778.51 203.393 783.98 204.805 788.013 206.235C789.649 206.813 791.258 207.467 792.833 208.195C793.405 208.46 793.848 208.68 794.143 208.829L794.471 209.001L794.547 209.042L794.563 209.049C794.878 209.224 795.228 209.327 795.587 209.35C795.947 209.373 796.307 209.317 796.642 209.184L796.471 208.715L796.639 209.184H796.642L796.471 208.715L796.639 209.184C796.751 209.138 801.407 207.373 808.002 207.377C811.987 207.377 816.672 208.012 821.553 210.014C825.225 211.52 830.873 213.446 837.489 215.563C857.308 221.903 885.699 229.877 892.238 231.746C896.273 232.901 898.644 234.479 899.997 235.679C900.491 236.109 900.939 236.59 901.332 237.114L901.56 237.454L901.586 237.5L902.663 236.884L901.562 237.45L901.586 237.5L902.663 236.884L901.562 237.45C902.069 238.511 903.192 239.085 904.313 238.854L904.281 238.694L904.311 238.854H904.313L904.281 238.694L904.311 238.854C904.409 238.834 906.068 238.518 908.542 238.52C912.004 238.517 917.015 239.144 921.664 241.877C923.994 243.244 926.251 245.128 928.261 247.774C930.267 250.421 932.031 253.84 933.307 258.319C933.519 259.062 934.049 259.679 934.736 259.983C935.077 260.133 935.448 260.204 935.82 260.19C936.192 260.175 936.557 260.076 936.885 259.9L936.376 258.88L936.878 259.906L936.885 259.9L936.376 258.88L936.878 259.906C936.894 259.885 940.217 258.195 944.334 258.21C947.009 258.217 949.974 258.865 952.906 261.035C955.834 263.212 958.824 267.006 961.224 273.671C967.591 291.383 974.81 322.482 974.803 359.089C974.803 373.775 973.646 389.353 970.819 405.328C967.261 425.433 965.784 438.868 965.784 450.992C965.784 461.994 967.003 471.829 968.908 484.431C970.814 497.042 973.414 512.474 976.239 534.854C980.646 569.759 993.307 645.874 1004.88 713.336C1016.44 780.786 1026.91 839.535 1026.91 839.538L1029.39 839.063L1028.75 836.535C1028.75 836.535 1028.43 836.621 1027.79 836.789C1023.05 838.049 1001.05 843.757 972.042 849.146C943.038 854.536 907.01 859.597 874.3 859.595C863.971 859.595 853.976 859.09 844.649 857.94L844.35 860.538L846.871 860.428C846.871 860.426 843.047 766.269 838.589 667.195C836.358 617.658 833.97 566.892 831.819 526.044C830.744 505.62 829.73 487.677 828.822 473.599C827.914 459.508 827.124 449.339 826.469 444.268C826.426 443.92 826.314 443.585 826.139 443.281C825.965 442.978 825.732 442.712 825.453 442.5L823.968 444.615L821.469 444.963C822.085 449.719 822.886 459.916 823.788 473.948C826.953 523.105 831.465 619.802 835.185 704.182C837.48 756.334 839.695 808.49 841.83 860.649C841.883 861.934 842.821 862.983 844.053 863.134C853.627 864.315 863.812 864.825 874.3 864.825C909.714 864.823 948.595 859.01 978.671 853.207C1008.74 847.403 1029.99 841.604 1030.03 841.593C1031.31 841.244 1032.11 839.93 1031.87 838.588C1031.87 838.577 1031.22 834.918 1030.05 828.358C1025.99 805.399 1015.7 747.043 1005.47 686.825C995.246 626.615 985.07 564.502 981.243 534.174C978.406 511.695 975.787 496.159 973.893 483.621C971.996 471.076 970.83 461.578 970.83 450.992C970.828 439.328 972.249 426.237 975.782 406.271C978.669 389.953 979.849 374.06 979.849 359.089C979.844 321.754 972.533 290.185 965.951 271.846C963.304 264.463 959.744 259.675 955.845 256.783C951.95 253.882 947.812 252.971 944.334 252.978C938.768 252.997 934.774 255.158 934.567 255.255L935.726 257.579L938.147 256.837C936.712 251.794 934.656 247.743 932.226 244.542C928.583 239.731 924.113 236.88 919.863 235.284C915.605 233.682 911.559 233.291 908.542 233.289C905.468 233.291 903.45 233.698 903.329 233.722L903.822 236.287L906.081 235.127C905.954 234.859 905.203 233.414 903.279 231.706C901.357 229.995 898.27 228.041 893.578 226.703C889.205 225.452 875.154 221.499 860.425 217.131C853.063 214.948 845.534 212.664 838.977 210.566C832.423 208.47 826.818 206.55 823.409 205.15C817.836 202.864 812.502 202.146 808.002 202.146C800.307 202.151 795.037 204.224 794.846 204.295L795.745 206.739L796.927 204.428C796.842 204.382 794.024 202.836 789.644 201.286C785.261 199.738 779.316 198.171 772.914 198.165C769.018 198.167 764.943 198.754 760.995 200.335C758.427 201.352 756.124 202.942 754.262 204.982C751.62 207.883 750.072 211.405 749.171 214.891C748.272 218.384 748.009 221.874 748.007 224.874C748.011 229.763 748.715 233.363 748.735 233.475L751.207 232.955L750.328 230.504L749.413 230.853C747.347 231.641 742.044 233.643 736.331 235.647C730.631 237.649 724.457 239.661 720.9 240.428C718.832 240.88 716.31 241.783 713.604 243.18C709.557 245.274 705.114 248.476 701.604 253.008C698.097 257.525 695.564 263.454 695.573 270.617C695.573 274.48 696.299 278.678 697.919 283.184C702.595 296.182 710.703 309.734 720.309 324.57C729.921 339.399 741.047 355.499 751.821 373.445C762.894 391.869 780.525 410.096 795.412 423.822C810.298 437.534 822.439 446.696 822.484 446.729L823.968 444.615L821.469 444.963L823.968 444.615V444.615Z" fill="#23295B"/>
</g>
</g>
<defs>
<filter id="filter0_i" x="422" y="171" width="702" height="527" filterUnits="userSpaceOnUse" color-interpolation-filters="sRGB">
<feFlood flood-opacity="0" result="BackgroundImageFix"/>
<feBlend mode="normal" in="SourceGraphic" in2="BackgroundImageFix" result="shape"/>
<feColorMatrix in="SourceAlpha" type="matrix" values="0 0 0 0 0 0 0 0 0 0 0 0 0 0 0 0 0 0 127 0" result="hardAlpha"/>
<feOffset dy="4"/>
<feGaussianBlur stdDeviation="25"/>
<feComposite in2="hardAlpha" operator="arithmetic" k2="-1" k3="1"/>
<feColorMatrix type="matrix" values="0 0 0 0 0 0 0 0 0 0 0 0 0 0 0 0 0 0 0.7 0"/>
<feBlend mode="normal" in2="shape" result="effect1_innerShadow"/>
</filter>
<filter id="filter1_d" x="388" y="140" width="778" height="573" filterUnits="userSpaceOnUse" color-interpolation-filters="sRGB">
<feFlood flood-opacity="0" result="BackgroundImageFix"/>
<feColorMatrix in="SourceAlpha" type="matrix" values="0 0 0 0 0 0 0 0 0 0 0 0 0 0 0 0 0 0 127 0"/>
<feOffset dx="-6" dy="-7"/>
<feGaussianBlur stdDeviation="10"/>
<feColorMatrix type="matrix" values="0 0 0 0 0 0 0 0 0 0 0 0 0 0 0 0 0 0 0.3 0"/>
<feBlend mode="normal" in2="BackgroundImageFix" result="effect1_dropShadow"/>
<feBlend mode="normal" in="SourceGraphic" in2="effect1_dropShadow" result="shape"/>
</filter>
<filter id="filter2_d" x="-23" y="-15" width="1197" height="745" filterUnits="userSpaceOnUse" color-interpolation-filters="sRGB">
<feFlood flood-opacity="0" result="BackgroundImageFix"/>
<feColorMatrix in="SourceAlpha" type="matrix" values="0 0 0 0 0 0 0 0 0 0 0 0 0 0 0 0 0 0 127 0"/>
<feOffset dy="8"/>
<feGaussianBlur stdDeviation="11"/>
<feColorMatrix type="matrix" values="0 0 0 0 0 0 0 0 0 0 0 0 0 0 0 0 0 0 0.25 0"/>
<feBlend mode="normal" in2="BackgroundImageFix" result="effect1_dropShadow"/>
<feBlend mode="normal" in="SourceGraphic" in2="effect1_dropShadow" result="shape"/>
</filter>
<filter id="filter3_d" x="610.773" y="198.165" width="594.897" height="744.148" filterUnits="userSpaceOnUse" color-interpolation-filters="sRGB">
<feFlood flood-opacity="0" result="BackgroundImageFix"/>
<feColorMatrix in="SourceAlpha" type="matrix" values="0 0 0 0 0 0 0 0 0 0 0 0 0 0 0 0 0 0 127 0"/>
<feOffset dx="8" dy="18"/>
<feGaussianBlur stdDeviation="8"/>
<feColorMatrix type="matrix" values="0 0 0 0 0 0 0 0 0 0 0 0 0 0 0 0 0 0 0.58 0"/>
<feBlend mode="normal" in2="BackgroundImageFix" result="effect1_dropShadow"/>
<feBlend mode="normal" in="SourceGraphic" in2="effect1_dropShadow" result="shape"/>
</filter>
<clipPath id="clip0">
<rect width="1152" height="700" fill="white"/>
</clipPath>
</defs>
</svg>
