<svg width="1152" height="700" fill="none" xmlns="http://www.w3.org/2000/svg"><mask id="a" maskUnits="userSpaceOnUse" x="0" y="0" width="1152" height="700"><path fill="#C4C4C4" d="M0 0h1152v700H0z"/></mask><g mask="url(#a)"><g filter="url(#filter0_i)"><path d="M1124 675.273V171.979c-21.25-1.865-42.81-1.494-63.36 4.934-84.172 26.323-119.639 139.92-202.999 168.891-33.169 11.529-69.186 7.699-104.096 10-33.191 2.186-66.028 10.079-96.767 23.259-19.816 8.5-39.111 19.457-53.788 35.68-12.361 13.664-20.931 30.469-29.195 47.133a2952.337 2952.337 0 00-42.857 90.223c-14.171 31.182-28.035 63.01-49.053 89.709C465.035 663.215 444.61 680.169 422 694h357.675c25.754-5.744 51.471-11.595 77.148-17.44 41.647-9.481 83.628-18.988 126.258-19.76 4.909-.089 10.125.026 14.261 2.772 5.298 3.518 7.398 10.31 9.538 16.446a146.333 146.333 0 007.69 17.982h91.38c9.97 0 18.05-8.384 18.05-18.727z" fill="#23295B"/></g><g filter="url(#filter1_d)"><path d="M1152 681.481V167c-4.09.252-7.85.515-10.9.656-18.71.86-37.43 4.265-54.29 12.698-69.37 34.695-80.86 135.822-147.685 175.175-40.589 23.904-91.123 18.875-138.255 17.699-47.134-1.178-100.618 5.438-128.914 43.016-26.593 35.321-21.243 85.678-41.819 124.783-22.533 42.822-71.507 64.299-118.216 77.405-30.957 8.686-65.348 16.91-84.08 42.956C419.617 672.825 415.624 686.066 414 700h738" fill="#E9EAEA"/></g><g filter="url(#filter2_d)"><path fill-rule="evenodd" clip-rule="evenodd" d="M397-1H-1v700h398v1h45.09c19.431-12.894 37.05-28.285 51.943-47.043 20.252-25.506 34.023-55.618 47.669-85.46l.033-.073.017-.036.016-.035 1.011-2.211 1.518-3.315a2982.61 2982.61 0 0143.915-91.652c8.468-16.929 17.25-34 29.915-47.881 15.04-16.48 34.811-27.61 55.117-36.245 31.497-13.389 65.145-21.407 99.155-23.628 10.205-.667 20.502-.827 30.797-.987h.001c25.794-.4 51.576-.801 75.868-9.171 42.171-14.53 72.38-50.013 102.539-85.436 30.926-36.327 61.806-72.592 105.476-86.131 21.06-6.53 43.15-6.907 64.92-5.012V-1H397z" fill="#fff"/></g><path d="M587.204 621.981l27.435 10.306s-1.589-12.779 0-11.544c1.591 1.238 44.929 34.627 44.929 34.627l-36.579-17.314 3.977 12.779-39.762-28.854z" fill="#23295B"/><path d="M1090.42 285l-16.15 25.195s12.35 1.423 10.82 2.734c-1.54 1.309-43.09 37.058-43.09 37.058l24.88-32.747-12.91.981L1090.42 285z" fill="#100F0D"/><path d="M626.857 352.881l28.695-5.491s-7.605-10.191-5.629-9.958c1.976.232 55.652 6.321 55.652 6.321l-40.004 4.238 9.662 8.94-48.376-4.05zM1004.08 174.302l-12.925 27.12s12.425-.218 11.065 1.284c-1.36 1.5-38.188 42.44-38.188 42.44l20.662-35.763-12.691 2.677 32.077-37.758z" fill="#EE2448"/><path d="M578.033 648.883l7.792 7.94 10.728-2.152-4.877 10.138 5.289 9.911-10.806-1.677-7.459 8.279-1.802-11.174-9.898-4.793 9.693-5.229 1.34-11.243z" fill="#fff"/><path d="M1005.47 332l6.68 6.815 9.21-1.847-4.19 8.699 4.54 8.504-9.27-1.438-6.4 7.104-1.54-9.587-8.5-4.116 8.32-4.487 1.15-9.647zM667.317 304.562l3.465 6.936 7.476.972-5.293 5.56 1.419 7.671-6.736-3.5-6.6 3.768 1.131-7.721-5.496-5.344 7.431-1.272 3.203-7.07z" fill="#23295B"/><path d="M1035.96 265l3.6 4.775 5.84-.374-3.26 5.033 2.15 5.641-5.63-1.665-4.51 3.86-.21-6.06-4.94-3.257 5.5-2.081 1.46-5.872zM806.956 568l3.608 4.775 5.838-.374-3.264 5.033 2.146 5.641-5.626-1.665-4.511 3.86-.213-6.06-4.934-3.255 5.494-2.081 1.462-5.874z" fill="#EE2448"/><g filter="url(#filter3_d)"><path d="M1098.97 524.42s32.07-27.589 45.6-53.67c13.53-26.08 28.28-46.934 33.51-64.914 5.24-17.983-10.25-25.443-16.37-26.357-6.12-.913-21.15-5.615-21.15-5.615s2.25-16.914-8.73-20.503c-10.98-3.587-23.37 4.309-23.37 4.309s-8.95-2.881-18.56 1.81c-9.6 4.691-42.1 16.144-48.06 18.278-5.97 2.135-7.29 5.414-7.29 5.414s-17.19-2.379-21.29 16.27c0 0-13.495-6.147-18.73 11.835-5.231 17.981-10.432 54.208-1.086 92.985 9.346 38.774 4.843 40.984 1.7 89.778-3.143 48.793-22.253 214.156-22.253 214.156s79.029 16.101 129.619 6.463c0 0-5.41-262.662-3.54-290.239z" fill="#23295B"/><path d="M1116.27 386.383s6.45 29.672 40.71 32.931c0 0-25.24 5.779-35.57-9.649 0 0-4.65-11.565-5.14-23.282z" fill="#1A2042"/><path d="M1151.61 419.699s-24.86 15.01-24.85 35.999c0 0-54.7-.443-76.13 44.737 0 0-1.81-33.051-34.94-43.842 0 0 5.58-14.617-3.01-19.446 0 0 12.89 3.689 15.5-3.292 0 0 11.17 19.518 40.61 4.395l44.63-25.871s-8-16.611 2.19-32.71c0 0-3.8 46.172 36 40.03z" fill="#1A2042"/><path d="M996.892 527.563s13.878 10.197 37.548 6.831c0 0-18.16 4.879-19.71 38.277l-3.89-27.882-26.397 156.546s16.387-138.449 12.449-173.772zM994.53 411.277c5.235-17.982 18.73-11.835 18.73-11.835 4.1-18.649 21.29-16.27 21.29-16.27s1.32-3.279 7.29-5.414c5.96-2.134 38.46-13.587 48.06-18.278 9.61-4.691 18.56-1.81 18.56-1.81s12.39-7.896 23.37-4.309c10.98 3.589 8.73 20.503 8.73 20.503s15.03 4.702 21.15 5.615c6.12.914 21.61 8.374 16.37 26.357-1.28 4.423-3.15 9.021-5.43 13.828l-.32-.297s7.48-22.511-12.16-28.576c-19.65-6.066-44.69-6.23-44.69-6.23s-.49-2.91-.17-6.124c.2.764.3 1.232.3 1.232l-.27-1.601c.5-4.296 2.49-8.956 8.98-7.882l10.03 2.154s-2.62-16.34-21.63-9.659l2.62 15.387-.03.369c-1.3-4.748-6.87-21.323-20.15-13.772-15.43 8.765-34.73 15.113-34.73 15.113l20.23.056s11.62 5.818 12.21 23.411c0 0-7.89-17.475-27.86-16.564-19.97.912-37.67-.924-39.93 14.855l26.22 3.213s13.12 1.291 16.08 23.369c0 0-8.47-15.678-24.08-16.139-15.62-.462-35.16-2.071-35.16-2.071s.91 13.395 11.8 23.155c0 0-15.5-9.673-19.02-19.7 0 0 1.09 22.939 12.04 31.429 0 0-16.315-5.261-19.836-15.29 0 0-3.574 45.957-1.449 66.541-6.83-35.61-2.006-68.062 2.855-84.766z" fill="#EE2448"/><path d="M1139.89 376.385l-14.3-4.375.37.071c-.52-.051-1.39-.025-2.07.091-.71.129-1.42.308-2.05.609a6.734 6.734 0 00-3.06 2.738c-.78 1.209-1.14 2.796-1.36 4.42-.19 1.67-.11 3.342.02 5.176.61 7.381 1.37 14.751 4.43 21.132 1.51 3.165 3.64 5.985 6.36 8.072 2.68 2.155 5.95 3.482 9.32 4.301 6.82 1.594 14.06.943 21.08-.258l.02-.002c.42-.074.83.225.9.668a.814.814 0 01-.62.93c-7.1 1.467-14.49 2.439-21.85 1.004-3.65-.746-7.31-2.069-10.42-4.394-3.16-2.248-5.7-5.394-7.49-8.852-3.63-6.979-4.64-14.805-5.5-22.192-.4-3.784-.67-8.165 1.53-12.208 1.08-1.982 2.83-3.668 4.83-4.635.99-.508 2.04-.822 3.09-1.045 1.09-.201 2.04-.306 3.32-.229l.24.037.12.035 14.43 3.864c1.35.362 2.16 1.788 1.82 3.187-.35 1.399-1.73 2.239-3.08 1.879l-.08-.024zM1013.57 396.845l36.34 4.619-.18-.018c1.67.144 2.93.478 4.33.902 1.34.471 2.67 1 3.91 1.727 2.51 1.395 4.75 3.327 6.55 5.616 1.86 2.264 3.06 4.956 4.03 7.635.37 1.371.87 2.733 1.05 4.126.26 1.397.5 2.796.64 4.027l2.31 15.5c.67 5.252 1.33 10.626.62 16.352-.4 2.825-1.2 5.884-3.15 8.481a13.176 13.176 0 01-3.49 3.242c-1.34.814-2.76 1.375-4.18 1.764-2.63.607-5.26 1.135-7.96 1.225-1.33.137-2.69.017-4.04.028-1.35-.162-2.71-.177-4.05-.491-2.7-.411-5.36-1.371-7.88-2.626-2.54-1.284-4.8-3.185-6.74-5.375-3.73-4.599-5.37-10.572-5.48-16.171l1.74 2.422c-2.63-1.161-4.78-2.497-6.94-4.045a42.101 42.101 0 01-5.94-5.169 38.273 38.273 0 01-4.88-6.158c-1.46-2.172-2.56-4.571-3.57-6.964a.7.7 0 01.34-.897.65.65 0 01.83.275l.02.039c1.25 2.168 2.56 4.285 4.18 6.137a34.861 34.861 0 005.19 5.104 39.173 39.173 0 005.97 3.996c2.05 1.118 4.35 2.12 6.37 2.708l.07.026c1.01.373 1.65 1.349 1.67 2.395.1 4.824 1.48 9.423 4.26 12.886 1.48 1.639 3.17 3.108 5.18 4.124 2.02.986 4.17 1.798 6.47 2.139 4.54.871 9.39.423 13.95-.679 1.02-.286 1.97-.67 2.81-1.172a8.223 8.223 0 002.11-1.961c1.19-1.547 1.83-3.707 2.15-6.016.6-4.678.04-9.817-.63-14.893l-2.31-15.503c-.15-1.367-.37-2.537-.58-3.711-.15-1.208-.58-2.301-.87-3.45-.81-2.18-1.74-4.329-3.18-6.053a16.941 16.941 0 00-5.03-4.307c-.95-.565-1.99-.97-3.03-1.343-1.02-.321-2.23-.594-3.07-.666l-.17-.015-.01-.002-36.34-4.617c-1.39-.177-2.37-1.482-2.2-2.916.17-1.433 1.43-2.454 2.81-2.277z" fill="#100F0D"/><path d="M1029.69 429.251c-.08 3.223.15 6.371.79 9.298.67 2.927 1.66 5.673 3.12 8.191 1.52 2.471 3.32 4.8 5.52 6.9 1.06 1.085 2.3 1.998 3.44 3.082 1.23.957 2.51 1.88 3.74 2.989l.06.052c.28.253.31.692.07.983-.17.2-.43.277-.66.222-1.6-.377-3.18-.886-4.76-1.464-1.48-.78-3.07-1.424-4.45-2.452-.69-.513-1.41-1.002-2.08-1.552-.71-.513-1.27-1.212-1.91-1.819-1.31-1.196-2.28-2.746-3.28-4.233a22.098 22.098 0 01-3.05-10.36c-.16-3.604.54-7.173 2.27-10.264.18-.313.56-.42.86-.238.21.124.32.349.32.58v.085zM1034.97 385.75s.39-.069 1.1-.189a506.2 506.2 0 0115.95-2.446c7.02-.96 14.71-1.802 19.5-1.798.58 0 1.11.013 1.59.037 2.55.124 4.74.365 6.56.904 1.37.406 2.52.96 3.56 1.764 1.56 1.205 2.95 3.023 4.19 6.134 1.23 3.102 2.24 7.457 2.95 13.408 1.76 14.798 2.03 25.31 2.03 30.385 0 1.149-.01 2.02-.02 2.598-.01.29-.02.506-.02.648l-.01.197 2.52.126-2.45-.63.62.161-.62-.166v.005l.62.161-.62-.166c-.01.081-1.04 4.091-3.59 7.855-1.28 1.886-2.92 3.7-4.94 5.02-2.04 1.317-4.45 2.181-7.53 2.188-1.38 0-2.91-.181-4.58-.598-1.36-.337-2.72.528-3.05 1.932-.32 1.405.51 2.816 1.87 3.154 2.03.505 3.95.742 5.76.742 4.09.007 7.57-1.233 10.34-3.075 4.16-2.769 6.76-6.755 8.36-10.001 1.61-3.255 2.22-5.822 2.26-5.953l.07-.504c0-.04.06-1.308.06-3.694 0-5.268-.28-15.993-2.07-31.023-.66-5.547-1.58-9.932-2.82-13.469-.92-2.652-2.03-4.831-3.37-6.614-1.99-2.681-4.52-4.382-7.23-5.322-2.71-.952-5.58-1.238-8.61-1.393-.57-.028-1.18-.04-1.83-.04-6.04.005-15.3 1.136-23.16 2.258a497.38 497.38 0 00-14.23 2.248c-1.38.24-2.3 1.59-2.07 3.015.23 1.425 1.54 2.382 2.91 2.141zM1107.88 360.212l.23-1.002-.29.988.06.014.23-1.002-.29.988c.06.024 1.43.452 2.85 2.369 1.4 1.923 2.97 5.466 2.98 12.127 0 1.445 1.13 2.615 2.53 2.613 1.39-.002 2.52-1.173 2.52-2.618 0-7.998-2.09-12.96-4.46-15.859-2.36-2.906-4.83-3.62-5.19-3.703-1.35-.338-2.71.526-3.04 1.932-.32 1.404.51 2.816 1.87 3.153z" fill="#100F0D"/><path d="M1095 437.8c1.1.347 2.19.768 3.29 1.072l1.67.305.83.16.83.017c2.23.225 4.37-.327 6.32-1.253 1.94-.96 3.64-2.491 5.01-4.355 1.35-1.834 2.48-4.089 3.13-6.204l-.06.417.88-24.971c.03-.885.74-1.577 1.6-1.544.85.031 1.51.762 1.49 1.637l-.49 24.981v.032l-.06.385c-.81 2.813-2 5.204-3.61 7.511-1.6 2.258-3.71 4.259-6.24 5.563-2.5 1.277-5.37 1.993-8.12 1.777l-1.03-.014-1.01-.165-2.01-.337c-1.3-.332-2.56-.785-3.84-1.181-1.05-.323-1.64-1.464-1.33-2.549.31-1.083 1.41-1.699 2.46-1.376l.01.003.28.089z" fill="#100F0D"/><path d="M1022.83 445.81l-.06 6.435s-11.44 4.632-21.87-2.329c0 0 47.95 21.956 49.73 50.519 0 0 12.15-45.699 66.83-55.601 0 0 2.89-21.151 29.08-24.55 0 0-9.63 1.748-17.52-3.351 0 0-.87 3.423-10.74 5.16 0 0 2.91 19.46-20.46 18.791 0 0-2.25-3.084-4.36 1.267-2.11 4.353-6.82 13.032-17.99 11.98 0 0-4.69-1.967-5.48 4.68-.78 6.646-13.2 16.923-33.7 5.748 0 0-4.84 1.245-6.66-16.182l-6.8-2.567zM1091.15 536.778s-3.86 57.112-3.92 58.362c-.05 1.249-2.72-64.957-2.72-64.957-21.04-2.301-22.4-12.075-22.4-12.075 64.5-9.936 99.14-79.605 99.14-79.605l.06 2.261c-5.28 9.204-11.11 19.143-16.74 29.986-13.53 26.081-45.6 53.67-45.6 53.67-1.87 27.577 3.54 290.239 3.54 290.239-9.6 1.828-20.23 2.729-31.15 2.991 14.05-98.864 19.79-280.872 19.79-280.872zM990.244 491.664s8.348 41.438 44.616 34.478c0 0-18.85 9.081-38.645-6.936l-5.971-27.542zM1142.03 374.455l-1.25 2.273.71-1.297-.74 1.282.03.015.71-1.297-.74 1.282.05.032c.28.191 1.64 1.181 2.91 3.292 1.27 2.116 2.51 5.353 2.52 10.304 0 1.59-.14 3.358-.44 5.322l2.49.418.12-2.613h-.03c-.42-.022-4.9-.333-9.6-1.856-2.35-.756-4.74-1.814-6.69-3.205-1.96-1.395-3.45-3.073-4.26-5.119-1.67-4.178-2.1-7.001-2.1-8.756.01-1.29.23-2.008.37-2.356.07-.174.12-.257.13-.272l-.04-.029.04.033v-.004l-.04-.029.04.033-1.09-.871.96 1.017.13-.146-1.09-.871.96 1.017-1.77-1.868-.57 2.547 17.7 4.268.58-2.546-1.25 2.273 1.25-2.273.57-2.549-17.71-4.268a2.461 2.461 0 00-2.33.681c-.22.214-.7.793-1.12 1.817-.42 1.025-.76 2.479-.76 4.396 0 2.624.62 6.106 2.47 10.754 1.33 3.326 3.7 5.797 6.32 7.609 3.96 2.718 8.58 4.102 12.23 4.884 3.66.773 6.37.91 6.46.915 1.28.065 2.4-.876 2.61-2.192.35-2.222.5-4.274.5-6.161.01-6.474-1.86-11.039-3.82-13.918-1.96-2.887-3.95-4.104-4.18-4.242-.2-.122-.44-.219-.67-.275l-.57 2.549z" fill="#100F0D"/><path d="M1098.97 524.42l1.61 2.014c.04-.037 8.11-6.979 17.91-17.226 9.79-10.26 21.32-23.775 28.3-37.218 6.72-12.949 13.76-24.646 19.83-35.417 6.05-10.775 11.14-20.612 13.88-29.983.8-2.747 1.17-5.327 1.17-7.728 0-3.67-.88-6.912-2.29-9.63-2.12-4.086-5.36-6.981-8.56-8.948-3.22-1.965-6.38-3.03-8.75-3.394-1.38-.205-3.43-.657-5.65-1.216-3.35-.839-7.14-1.921-10.09-2.79-1.47-.435-2.74-.817-3.63-1.089-.89-.273-1.41-.435-1.41-.435l-.73 2.504 2.5.356c.01-.087.21-1.626.21-3.905 0-2.78-.28-6.661-1.71-10.425-.73-1.879-1.75-3.735-3.22-5.337a13.362 13.362 0 00-5.75-3.685c-2.32-.759-4.66-1.057-6.91-1.057-4.97.007-9.54 1.422-12.91 2.806-3.37 1.39-5.54 2.768-5.63 2.824l1.32 2.229.75-2.499c-.17-.052-3.12-.989-7.52-.993-3.58 0-8.14.63-12.86 2.936-2.27 1.111-6.08 2.702-10.54 4.455-13.41 5.275-32.79 12.114-37.28 13.718-3.3 1.179-5.47 2.744-6.81 4.104-1.35 1.36-1.87 2.496-1.98 2.771l2.33 1.01.33-2.593c-.09-.011-.9-.12-2.21-.122-2.54.008-6.99.399-11.42 2.944-2.21 1.271-4.4 3.1-6.24 5.644-1.84 2.543-3.32 5.785-4.21 9.817l2.46.58 1.02-2.395c-.2-.08-2.69-1.224-6.24-1.235-2.58-.006-5.78.659-8.733 2.934-2.958 2.27-5.53 6.045-7.191 11.777-3.207 11.027-6.354 28.515-6.356 49.251 0 13.924 1.424 29.303 5.237 45.121 4.159 17.268 5.51 27.012 5.514 36.891.011 12.207-2.136 25.017-3.884 52.08-1.563 24.275-7.127 77.837-12.296 125.256a15585.767 15585.767 0 01-6.91 62.168c-.92 8.132-1.68 14.781-2.207 19.396-.528 4.617-.827 7.191-.827 7.198-.157 1.357.726 2.615 2.018 2.877.086.013 46.965 9.581 91.925 9.586 13.47 0 26.76-.855 38.64-3.116 1.22-.233 2.09-1.343 2.06-2.63 0-.007-.06-2.984-.16-8.349-.76-37.564-3.77-191.881-3.77-255.979 0-12.616.12-21.791.39-25.668l-2.52-.185 1.61 2.014-1.61-2.014-2.52-.182c-.28 4.235-.39 13.352-.4 26.035 0 73.391 3.94 264.428 3.94 264.441l2.52-.055-.45-2.573c-11.44 2.18-24.47 3.032-37.73 3.032-22.14 0-44.91-2.371-62.12-4.746a581.183 581.183 0 01-20.886-3.265 411.64 411.64 0 01-5.877-1.074c-.678-.129-1.198-.23-1.547-.3l-.521-.104-.488 2.567 2.506.31c0-.003 4.778-41.347 9.948-88.798 5.173-47.461 10.735-100.976 12.316-125.495 1.726-26.877 3.889-39.541 3.899-52.427 0-10.427-1.47-20.739-5.668-38.159-3.699-15.341-5.088-30.298-5.088-43.853-.003-20.173 3.089-37.257 6.141-47.742 1.449-4.949 3.445-7.599 5.365-9.084 1.93-1.478 3.93-1.897 5.73-1.905 1.23 0 2.33.211 3.1.421.38.105.68.209.88.281l.2.081.04.015.3-.729-.31.725.01.004.3-.729-.31.725c.68.312 1.48.29 2.15-.059.67-.349 1.16-1 1.32-1.757.75-3.399 1.94-5.916 3.33-7.835 2.08-2.869 4.65-4.46 7.17-5.385 2.51-.917 4.94-1.114 6.45-1.112.52 0 .92.022 1.19.042l.3.026.06.007.01-.136-.02.136h.01l.01-.136-.02.136c1.14.157 2.22-.489 2.66-1.581l-1.49-.651 1.47.717.02-.066-1.49-.651 1.47.717-.04-.018.04.02v-.002l-.04-.018.04.02c.08-.123 1.15-2.329 5.81-4.021 2.97-1.063 12.61-4.465 22.69-8.189a776.848 776.848 0 0014.73-5.58c4.52-1.781 8.37-3.381 10.9-4.615 3.9-1.905 7.7-2.436 10.71-2.436 1.85 0 3.4.201 4.47.396.53.098.94.196 1.21.264l.29.08.06.018.02-.068-.02.066v.002l.02-.068-.02.066c.69.225 1.44.128 2.07-.269l-.36-.602.35.604.01-.002-.36-.602.35.604c.04-.024 2.02-1.266 4.99-2.478 2.98-1.218 6.95-2.385 10.91-2.379 1.83 0 3.65.242 5.4.814 1.54.509 2.67 1.297 3.6 2.306 1.4 1.506 2.32 3.597 2.85 5.828.54 2.222.7 4.537.7 6.325 0 .977-.05 1.798-.09 2.361-.02.282-.04.502-.06.644l-.02.155v.031c-.17 1.275.58 2.489 1.77 2.862a391.6 391.6 0 008.34 2.482c2.28.65 4.75 1.329 7.06 1.908 2.31.579 4.44 1.057 6.12 1.308 1.04.154 2.61.593 4.3 1.349 2.55 1.133 5.36 2.979 7.45 5.518 2.09 2.554 3.51 5.711 3.52 9.929 0 1.846-.28 3.907-.95 6.217-2.5 8.612-7.4 18.191-13.41 28.859-6.01 10.671-13.1 22.441-19.91 35.574-6.55 12.638-17.82 25.957-27.45 36.012-4.81 5.034-9.2 9.266-12.39 12.233a289.29 289.29 0 01-3.78 3.445c-.45.397-.79.701-1.03.904-.23.203-.34.303-.34.303a2.656 2.656 0 00-.91 1.829l2.52.182z" fill="#100F0D"/><path d="M759.888 593.461s19.348-38.336 22.139-67.813c2.794-29.481 8.658-54.631 6.805-73.309-1.853-18.675-18.922-19.315-24.906-17.691-5.984 1.62-21.605 3.34-21.605 3.34s-4.209-16.49-15.674-15.378c-11.464 1.116-19.965 13.379-19.965 13.379s-9.338.955-16.458 9.142c-7.117 8.187-32.855 31.826-37.566 36.195-4.711 4.368-4.714 7.923-4.714 7.923s-16.753 4.732-13.597 23.559c0 0-14.744-.228-12.891 18.451 1.853 18.674 10.518 54.148 33.552 86.115 23.037 31.965 19.702 35.813 34.934 82.036 15.233 46.227 59.05 206.288 59.05 206.288s78.916-16.982 122.029-46.234c0 0-102.606-239.844-111.133-266.003z" fill="#FAFAFA"/><path d="M724.559 459.303s16.979 24.742 49.807 13.953c0 0-21.147 15.488-36.416 5.433 0 0-8.583-8.789-13.391-19.386z" fill="#D3D4D3"/><path d="M769.551 475.774s-17.363 23.839-9.56 43.176c0 0-50.642 21.614-53.63 71.874 0 0-13.946-29.728-48.535-26.333 0 0-.286-15.714-10.01-16.703 0 0 13.266-1.789 13.082-9.271 0 0 17.566 13.479 39.115-12.302l31.571-41.81s-13.549-12.088-10.127-31.024c0 0 13.65 44.074 48.094 22.393z" fill="#D3D4D3"/><path d="M666.849 637.456s16.596 3.808 37.196-8.825c0 0-14.951 11.809-3.97 43.205l-13.95-24.125 33.817 154.874s-36.328-134.17-53.093-165.129zM621.456 531.259c-1.853-18.678 12.889-18.451 12.889-18.451-3.154-18.827 13.599-23.559 13.599-23.559s.003-3.555 4.714-7.923c4.711-4.369 30.449-28.008 37.566-36.195 7.12-8.187 16.458-9.142 16.458-9.142s8.501-12.263 19.965-13.379c11.465-1.112 15.674 15.378 15.674 15.378s15.621-1.72 21.605-3.34c5.984-1.624 23.053-.984 24.906 17.691.457 4.596.444 9.585.125 14.929l-.405-.143s-1.46-23.755-21.846-21.434c-20.385 2.321-43.558 12.254-43.558 12.254s-1.528-2.487-2.434-5.575c.474.62.743 1.011.743 1.011l-.846-1.365c-1.139-4.157-1.032-9.252 5.359-10.879l10.053-2.051s-8.485-14.004-23.548-.194l8.136 13.124.103.354c-2.957-3.855-14.255-16.884-23.715-4.576-10.98 14.288-26.434 27.91-26.434 27.91l18.691-8.097s12.888.682 19.975 16.652c0 0-13.78-12.922-31.87-4.042-18.093 8.881-35.107 14.314-31.333 29.764l25.391-7.592s12.59-4.096 23.527 15.055c0 0-13.643-11.036-28.224-5.175-14.581 5.863-33.221 12.251-33.221 12.251s5.819 11.974 19.498 16.581c0 0-17.892-2.672-24.869-10.497 0 0 9.524 20.701 22.785 24.117 0 0-17.008 1.718-23.985-6.104 0 0 13.781 43.786 23.391 61.894-19.537-30.062-27.144-61.905-28.865-79.252z" fill="#EE2448"/><path d="M742.636 440.58l-14.817 1.725.364-.08a9.118 9.118 0 00-1.875.916c-.61.407-1.196.855-1.667 1.387a7.02 7.02 0 00-1.801 3.752c-.275 1.429-.022 3.039.384 4.622.447 1.615 1.142 3.124 1.94 4.762 3.303 6.558 6.747 13.042 11.945 17.688 2.565 2.309 5.583 4.047 8.869 4.875 3.271.908 6.777.816 10.195.213 6.886-1.276 13.334-4.793 19.359-8.725l.016-.01a.767.767 0 011.079.255.83.83 0 01-.226 1.105c-6.002 4.209-12.46 8.081-19.793 9.726-3.638.776-7.506 1.032-11.245.145-3.749-.803-7.268-2.677-10.203-5.144-5.946-4.968-9.78-11.775-13.324-18.23-1.773-3.33-3.655-7.255-3.12-11.868.253-2.26 1.244-4.517 2.733-6.214.729-.869 1.579-1.58 2.464-2.209.931-.623 1.765-1.102 2.973-1.545l.234-.061.129-.02 14.755-2.251c1.38-.209 2.659.779 2.857 2.209.199 1.428-.759 2.757-2.139 2.969l-.086.008zM633.664 510.295l35.254-10.378-.175.06c1.599-.545 2.881-.739 4.332-.914 1.413-.106 2.837-.153 4.251.016 2.833.275 5.621 1.155 8.134 2.535 2.561 1.337 4.66 3.34 6.56 5.414.849 1.116 1.818 2.167 2.502 3.378.753 1.185 1.498 2.377 2.083 3.454l7.886 13.354c2.574 4.571 5.184 9.251 6.655 14.815.687 2.765 1.083 5.904.246 9.081a13.842 13.842 0 01-2.018 4.395c-.934 1.293-2.036 2.378-3.201 3.308-2.199 1.619-4.432 3.162-6.888 4.331-1.183.666-2.481 1.105-3.719 1.658-1.309.394-2.566.924-3.923 1.177-2.648.709-5.456.893-8.251.755-2.816-.165-5.606-1.004-8.209-2.243-5.157-2.736-8.894-7.576-11.067-12.693l2.502 1.53h-.002c-2.859-.009-5.335-.378-7.912-.93a41.16 41.16 0 01-7.4-2.371 36.547 36.547 0 01-6.787-3.713c-2.159-1.412-4.067-3.179-5.883-4.978a.696.696 0 01-.02-.963.642.642 0 01.868-.081l.033.028c1.956 1.495 3.947 2.92 6.13 3.973a33.433 33.433 0 006.695 2.611 37.257 37.257 0 006.99 1.276c2.312.208 4.802.206 6.886-.066h.001l.075-.004c1.067-.064 2.018.582 2.429 1.536 1.885 4.405 4.865 8.087 8.719 10.158 1.978.914 4.082 1.587 6.32 1.712 2.224.096 4.513-.02 6.759-.634 4.519-1.023 8.823-3.39 12.628-6.244.833-.672 1.567-1.407 2.157-2.211a8.468 8.468 0 001.215-2.654c.522-1.9.312-4.153-.254-6.408-1.185-4.551-3.609-9.061-6.116-13.468l-7.886-13.358c-.652-1.197-1.289-2.188-1.919-3.184-.583-1.056-1.39-1.887-2.088-2.828-1.556-1.681-3.215-3.287-5.184-4.297a16.365 16.365 0 00-6.237-1.945c-1.091-.138-2.202-.091-3.3-.016-1.055.112-2.276.348-3.076.618l-.167.059-.011.003-35.254 10.377c-1.341.394-2.735-.411-3.111-1.802-.376-1.388.407-2.835 1.748-3.229z" fill="#23295B"/><path d="M660.58 533.666c1.133 2.998 2.513 5.807 4.186 8.248 1.704 2.427 3.639 4.556 5.92 6.292 2.324 1.665 4.857 3.084 7.665 4.134 1.379.571 2.861.915 4.318 1.454 1.491.388 3.015.721 4.567 1.248l.072.023c.352.12.544.514.427.88a.677.677 0 01-.521.466c-1.618.298-3.273.467-4.94.569-1.653-.123-3.363-.075-5.019-.468-.829-.192-1.674-.355-2.499-.59-.839-.189-1.619-.609-2.434-.91-1.649-.573-3.123-1.613-4.601-2.579a21.223 21.223 0 01-6.661-8.318c-1.486-3.257-2.178-6.824-1.724-10.37a.637.637 0 01.708-.567c.237.03.427.194.506.409l.03.079zM649.29 491.454c.002 0 .371-.243 1.048-.684 2.365-1.537 8.435-5.45 14.967-9.368 3.265-1.96 6.646-3.922 9.722-5.584 3.073-1.663 5.862-3.028 7.829-3.772 3.312-1.261 6.062-2.021 8.442-1.898a9.318 9.318 0 013.34.781c1.681.734 3.512 2.079 5.574 4.425 2.061 2.341 4.326 5.669 6.828 10.21 5.175 9.391 8.785 17.015 11.096 22.275a167.015 167.015 0 012.524 6.043c.269.689.467 1.208.595 1.554l.14.386.041.114 2.371-.898-2.495.386.129-.02-.131.018.002.002.129-.02-.131.018c.015.099.224 1.751.112 4.073-.133 2.93-.8 6.881-2.793 10.167-.996 1.652-2.308 3.154-4.097 4.394-1.791 1.236-4.078 2.222-7.093 2.739-1.376.235-2.311 1.58-2.09 3.006.223 1.424 1.517 2.388 2.893 2.155 3.638-.62 6.654-1.871 9.08-3.554 3.654-2.521 5.913-5.966 7.235-9.341 1.33-3.384 1.779-6.722 1.905-9.326.138-2.944-.142-4.963-.157-5.084a2.62 2.62 0 00-.124-.512c-.042-.12-4.243-12.103-14.757-31.18-3.503-6.346-6.666-10.688-9.889-13.59-1.611-1.447-3.249-2.53-4.925-3.262a14.223 14.223 0 00-5.063-1.183c-3.557-.158-6.914.896-10.409 2.212-2.686 1.021-6.095 2.751-9.808 4.797-11.097 6.13-24.706 15.091-24.733 15.109-1.179.775-1.531 2.391-.787 3.611.744 1.217 2.302 1.576 3.48.801zM707.084 438.569l-.205-1.31.146 1.32.059-.01-.205-1.31.146 1.32s.132-.018.388-.005c.692.04 2.173.254 4.055 1.67 1.877 1.421 4.208 4.111 6.329 9.344.537 1.33 2.015 1.952 3.302 1.391 1.285-.563 1.89-2.097 1.351-3.427-2.383-5.901-5.254-9.463-7.999-11.537-2.742-2.079-5.301-2.602-6.789-2.665a6.722 6.722 0 00-1.381.058c-1.376.236-2.311 1.58-2.09 3.006.221 1.426 1.517 2.391 2.893 2.155z" fill="#23295B"/><path d="M724.031 515.245c1.144-.116 2.31-.158 3.443-.315l1.656-.379.832-.184.774-.313c2.151-.675 3.946-2.042 5.418-3.681 1.457-1.671 2.482-3.778 3.071-6.059.579-2.25.809-4.787.63-7.035l.09.367-8.339-23.413c-.234-.658.091-1.389.727-1.634a1.207 1.207 0 011.559.713l8.97 23.163.003.009.087.357c.305 2.882.111 5.56-.497 8.314-.621 2.715-1.801 5.395-3.625 7.612-1.818 2.182-4.18 4.006-6.781 4.924l-.96.409-.987.26-1.975.506c-1.324.228-2.651.325-3.979.484-1.084.127-2.062-.678-2.183-1.802-.121-1.125.659-2.141 1.744-2.27l.025-.003.297-.03z" fill="#23295B"/><path d="M660.404 551.684l2.335 5.954s-8.838 8.874-21.044 6.659c0 0 52.408.923 64.666 26.527 0 0-5.769-47 41.014-78.14 0 0-5.191-20.655 17.72-34.332 0 0-8.244 5.488-17.413 3.966 0 0 .462 3.508-8.003 9.082 0 0 9.923 16.756-11.898 25.551 0 0-3.219-1.938-3.553 2.924-.331 4.861-1.444 14.751-12.152 18.282 0 0-5.054.075-3.309 6.515 1.743 6.442-5.9 20.911-28.972 18.867 0 0-4 3.094-12.154-12.228l-7.237.373zM757.264 607.995s17.666 54.178 18.077 55.352c.411 1.176-26.656-58.754-26.656-58.754-20.269 6.348-25.157-2.111-25.157-2.111 55.83-35.123 61.914-113.266 61.914-113.266l.885 2.063c-1.447 10.605-3.138 22.112-4.3 34.369-2.791 29.477-22.139 67.813-22.139 67.813 8.527 26.16 111.133 266.003 111.133 266.003-8.181 5.552-17.656 10.662-27.634 15.296-23.779-96.751-86.123-266.765-86.123-266.765zM647.374 607.053s23.103 34.823 53.988 13.806c0 0-14.02 15.956-38.242 9.167l-15.746-22.973zM743.891 437.943l-.305 2.596.156-1.321-.188 1.317.032.004.156-1.321-.188 1.317c.002.001.52.077 1.353.408 1.25.499 3.177 1.548 5.125 3.793 1.944 2.25 3.94 5.722 5.214 11.232l2.455-.615-.86-2.455-.007.001c-.147.056-1.959.72-4.559 1.321-2.598.602-5.988 1.132-9.227.974-1.781-.084-3.51-.373-5.04-.923-1.533-.551-2.857-1.347-3.947-2.467-2.795-2.874-4.243-5.14-4.974-6.743-.731-1.607-.763-2.536-.749-2.906l.022-.199-1.147-.276 1.08.469.067-.193-1.147-.276 1.08.469-2.325-1.01.421 2.576 17.922-3.195-.42-2.577-.305 2.596.305-2.596-.419-2.579-19.289 3.441-.539 1.323c-.103.252-.303.864-.345 1.787-.064 1.277.183 3.123 1.226 5.399 1.044 2.281 2.866 5.008 5.975 8.208 1.704 1.754 3.736 2.937 5.844 3.693 2.111.756 4.308 1.101 6.456 1.203 4.032.188 7.916-.47 10.832-1.157 2.914-.693 4.856-1.424 4.928-1.452l2.118-.803-.523-2.269c-1.963-8.586-5.777-13.561-9.233-16.244-3.454-2.691-6.423-3.109-6.724-3.148l-.365-.045-.361.064.419 2.579z" fill="#23295B"/><path d="M759.888 593.461l2.235 1.205c.025-.05 4.894-9.697 10.126-23.084 5.229-13.396 10.84-30.489 12.29-45.687 2.157-22.846 6.212-43.174 7.03-60.206.228-4.8.197-9.346-.227-13.626-.378-3.815-1.356-7.046-2.785-9.721-2.139-4.022-5.283-6.72-8.583-8.374-3.308-1.661-6.774-2.335-9.829-2.482-2.693-.125-5.053.149-6.849.633-1.349.364-3.405.773-5.668 1.153-3.403.575-7.305 1.106-10.346 1.49a394.815 394.815 0 01-5.219.626l.258 2.6 2.44-.676c-.042-.141-1.032-4.06-3.471-8.218-1.227-2.079-2.823-4.232-4.941-5.967-2.11-1.732-4.807-3.027-7.963-3.17a13.554 13.554 0 00-1.966.049c-3.269.319-6.26 1.422-8.892 2.849-3.951 2.145-7.124 5.022-9.349 7.366-2.221 2.344-3.489 4.168-3.545 4.247l2.049 1.521-.24-2.603c-.16.018-2.699.287-6.204 1.658-3.499 1.369-7.984 3.855-11.886 8.339-1.684 1.939-4.61 4.939-8.074 8.351-10.411 10.257-25.76 24.363-29.3 27.644-2.432 2.253-3.831 4.416-4.605 6.153-.777 1.738-.926 3.035-.949 3.548l-.005.19 2.524-.02-.657-2.524c-.19.061-3.786 1.073-7.606 4.093-1.905 1.513-3.868 3.546-5.407 6.231-1.54 2.681-2.632 6.015-2.817 9.967-.092 1.936.029 4.018.404 6.249l2.486-.457.046-2.613c-.232.009-3.677-.068-7.476 1.992a14.58 14.58 0 00-5.383 5.059c-1.522 2.409-2.546 5.573-2.731 9.529a32.901 32.901 0 00.143 4.76c.953 9.574 3.623 23.283 8.968 38.689 5.35 15.401 13.378 32.489 25.071 48.718 5.727 7.948 9.786 14.108 12.882 19.565 4.641 8.188 7.16 14.811 10.002 23.876 2.836 9.056 5.956 20.492 11.686 37.88 7.579 22.998 22.349 74.592 35.202 120.365a15395.283 15395.283 0 0121.895 78.826c1.228 4.466 1.911 6.958 1.913 6.965.359 1.312 1.642 2.116 2.933 1.839.048-.011 19.838-4.27 45.066-12.206 25.237-7.949 55.882-19.521 77.834-34.403 1.041-.706 1.432-2.078.93-3.253-.002-.002-.401-.937-1.153-2.698-5.651-13.221-31.146-72.914-56.226-132.361-12.54-29.722-24.975-59.386-34.773-83.141-4.899-11.879-9.137-22.282-12.397-30.469-3.258-8.178-5.549-14.188-6.5-17.111l-2.391.845 2.235 1.205-2.235-1.205-2.39.845c1.117 3.419 3.651 10.015 7.281 19.103 25.382 63.507 103.929 247.108 103.936 247.121l2.306-1.066-1.377-2.187c-21.161 14.372-51.531 25.915-76.529 33.772a595.334 595.334 0 01-31.71 8.998 475.709 475.709 0 01-9.482 2.312 363.631 363.631 0 01-3.437.778l.506 2.561 2.428-.722c-.002-.004-10.956-40.023-23.819-85.826-12.863-45.813-27.618-97.364-35.27-120.592-7.595-23.038-10.541-35.48-14.571-46.453-2.015-5.479-4.309-10.565-7.541-16.26-3.233-5.698-7.398-12.007-13.187-20.042-11.341-15.737-19.163-32.37-24.369-47.365-5.206-14.989-7.796-28.356-8.698-37.457a27.28 27.28 0 01-.121-3.967c.157-3.184.93-5.35 1.913-6.919a9.34 9.34 0 012.557-2.696c1.398-.987 2.94-1.501 4.126-1.746a11.546 11.546 0 011.423-.207 7.29 7.29 0 01.368-.02l.075-.002.007.001.012-1.439-.026 1.438.014.001.012-1.439-.026 1.438a2.51 2.51 0 001.963-.919 2.705 2.705 0 00.569-2.153c-.313-1.879-.408-3.57-.335-5.096.152-3.113.973-5.548 2.114-7.546 1.708-2.989 4.219-5.005 6.338-6.259a20.04 20.04 0 012.67-1.327c.335-.133.597-.226.768-.285l.184-.059.035-.01-.144-.533.138.535.006-.002-.144-.533.138.535c1.104-.313 1.872-1.361 1.868-2.546l-1.649.014 1.646.078.003-.092-1.649.014 1.646.078.002-.003c.037-.178.219-2.628 3.871-6.044 2.347-2.175 9.972-9.189 17.898-16.68 3.965-3.749 8.006-7.617 11.514-11.071 3.512-3.462 6.472-6.487 8.347-8.641 3.218-3.704 6.961-5.788 9.912-6.942a24.329 24.329 0 013.62-1.112c.44-.097.783-.159 1.005-.192l.243-.035.048-.007-.03-.299.026.301.004-.002-.03-.299.026.301a2.514 2.514 0 001.809-1.082l-.231-.172.231.172-.231-.172.231.172c.052-.079 2.123-3.008 5.444-5.963 1.66-1.479 3.628-2.961 5.784-4.116 2.158-1.158 4.492-1.983 6.918-2.217.44-.044.859-.054 1.263-.034 1.968.099 3.591.854 5.079 2.059 2.222 1.796 3.972 4.678 5.076 7.123.559 1.22.963 2.321 1.225 3.106.129.39.225.703.284.911l.066.231.014.05.001.008.914-.258-.915.254.001.004.914-.258-.915.254c.318 1.244 1.463 2.059 2.697 1.924a383.98 383.98 0 008.62-1.07 230.62 230.62 0 007.224-1.085c2.348-.396 4.49-.812 6.133-1.256 1.173-.323 3.144-.577 5.341-.467 3.355.154 7.233 1.125 10.284 3.478 1.534 1.178 2.886 2.69 3.957 4.696 1.07 2.007 1.865 4.522 2.185 7.73.388 3.931.427 8.221.207 12.834-.77 16.392-4.814 36.797-7.012 59.952-1.344 14.28-6.801 31.094-11.945 44.232a314.049 314.049 0 01-6.896 16.261 254.545 254.545 0 01-2.206 4.697l-.608 1.246-.209.418a2.686 2.686 0 00-.156 2.051l2.39-.845z" fill="#23295B"/><path d="M823.968 444.615s-48.347-36.48-70.005-72.55c-21.657-36.072-44.608-64.54-53.68-89.794-9.071-25.253 12.456-37.399 21.135-39.283 8.677-1.884 29.789-10.033 29.789-10.033s-4.706-24.007 10.698-30.18c15.405-6.173 33.84 3.964 33.84 3.964s12.574-4.966 26.735.843c14.161 5.811 61.7 19.147 70.429 21.642 8.727 2.495 10.913 7.064 10.913 7.064s24.41-5.025 31.904 21.291c0 0 18.789-10.074 27.861 15.181 9.071 25.255 19.694 76.635 9.713 133.041-9.982 56.403-3.341 59.14 5.44 128.713 8.782 69.572 50.65 304.549 50.65 304.549s-111.743 30.506-185.04 21.475c0 0-15.291-376.615-20.382-415.923z" fill="#EE2448"/><path d="M787.082 248.59s-6.632 43.095-55.401 50.991c0 0 36.649 5.898 50.092-17.168 0 0 5.631-16.997 5.309-33.823z" fill="#D51F46"/><path d="M739.406 299.629s36.915 19.147 38.746 49.202c0 0 78.281-5.791 112.933 56.883 0 0-.319-47.496 46.177-66.073 0 0-9.267-20.405 2.611-28.13 0 0-18.132 6.499-22.481-3.249 0 0-14.293 28.997-57.768 10.121l-66.173-32.837s9.987-24.541-6.015-46.629c0 0 9.493 65.752-48.03 60.712z" fill="#D51F46"/><path d="M970.408 439.49s-18.976 15.909-53.171 13.323c0 0 26.438 5.274 31.586 52.948l3.122-40.291 51.525 221.671s-35.607-196.7-33.062-247.651zM963.587 272.76c-9.072-25.255-27.861-15.182-27.861-15.182-7.496-26.315-31.904-21.291-31.904-21.291s-2.186-4.569-10.913-7.063c-8.729-2.495-56.268-15.831-70.429-21.642-14.161-5.809-26.735-.843-26.735-.843s-18.437-10.137-33.84-3.964c-15.404 6.172-10.698 30.18-10.698 30.18s-21.112 8.149-29.791 10.033c-8.677 1.884-30.204 14.028-21.133 39.282 2.232 6.215 5.306 12.622 8.992 19.289l.433-.455s-12.69-31.527 14.91-42.064c27.6-10.537 63.443-13.131 63.443-13.131s.438-4.215-.292-8.789c-.231 1.116-.333 1.797-.333 1.797l.248-2.32c-1.088-6.104-4.345-12.588-13.551-10.438l-14.167 4.028s2.311-23.644 30.119-15.87l-2.401 22.28c.032.176.058.349.085.523 1.433-6.92 7.955-31.175 27.644-21.618 22.86 11.098 51.057 18.366 51.057 18.366l-28.964 1.988s-16.131 9.427-15.441 34.675c0 0 9.77-25.768 38.447-26.346 28.673-.577 53.851-4.875 58.479 17.507l-37.258 7.073s-18.677 3.083-20.981 34.977c0 0 10.753-23.249 33.07-25.38 22.317-2.131 50.164-6.281 50.164-6.281s-.13 19.267-14.868 34.269c0 0 21.338-15.311 25.498-30.001 0 0 .463 32.946-14.471 46.138 0 0 22.894-9.073 27.055-23.766 0 0 9.151 65.47 7.912 95.144 6.657-51.635-3.099-97.646-11.525-121.105z" fill="#FAFAFA"/><path d="M750.381 230.482l20.29-7.003.101-.035.259-.061c1.66-.212 3.004-.168 4.49.004 1.451.207 2.903.533 4.29 1.127 2.789 1.12 5.279 3.213 6.908 5.795.37.662.837 1.289 1.112 1.985l.834 2.087c.267.696.375 1.419.566 2.13.158.712.38 1.422.42 2.138.42 2.842.363 5.732.261 8.433-.536 10.653-1.24 21.851-5.712 32.048-1.1 2.533-2.465 4.96-4.104 7.182-1.613 2.236-3.489 4.288-5.607 6.015-4.165 3.578-9.204 5.813-14.295 7.238-10.302 2.775-20.934 2.148-31.199.773-.429-.057-.731-.465-.676-.91a.79.79 0 01.858-.705l.018.002c10.169 1.116 20.64 1.43 30.385-1.469 4.817-1.478 9.461-3.69 13.2-7.071 1.912-1.631 3.576-3.549 5.009-5.634a33.822 33.822 0 003.624-6.709c3.943-9.564 4.434-20.291 4.712-30.922.035-2.65.016-5.139-.399-7.595-.043-.631-.253-1.196-.395-1.783-.171-.574-.266-1.19-.495-1.729l-.689-1.609c-.217-.544-.589-.969-.867-1.461-1.248-1.862-2.979-3.243-5.025-4.02-1.011-.411-2.112-.625-3.221-.76-1.079-.112-2.336-.083-3.24.054l.36-.094-20.121 7.503c-1.312.489-2.757-.218-3.227-1.576-.473-1.36.208-2.859 1.518-3.346l.057-.022zM936.19 260.149l-51.631 10.039h-.012l-.171.027c-1.374.211-3.097.729-4.601 1.312-1.522.659-3.035 1.366-4.413 2.307-2.796 1.805-5.211 4.178-7.13 6.944-1.997 2.729-3.191 6.017-4.186 9.324-.333 1.722-.869 3.384-.978 5.171-.203 1.749-.416 3.496-.518 5.438-.548 7.551-1.392 15.009-1.938 22.415-.513 7.372-.883 14.836.424 21.7.68 3.388 1.838 6.616 3.851 8.933a12.794 12.794 0 003.509 2.868c1.361.701 2.858 1.192 4.428 1.521 3.4.544 6.86 1.02 10.308.896 1.732.074 3.435-.21 5.153-.295 1.677-.33 3.41-.446 5.039-.956 3.346-.723 6.465-2.131 9.37-3.797 2.904-1.711 5.313-4.075 7.383-6.688 3.869-5.482 5.48-12.496 5.188-19.582-.044-1.111.59-2.089 1.522-2.5l.066-.03h.002c2.967-1.166 6.125-2.886 8.987-4.779a56.471 56.471 0 008.172-6.535c1.308-1.179 2.452-2.522 3.661-3.814 1.091-1.387 2.282-2.714 3.25-4.211 2.122-2.873 3.756-6.082 5.295-9.35l.018-.039a.647.647 0 01.881-.313.69.69 0 01.324.856c-1.283 3.475-2.698 6.955-4.644 10.136-.881 1.653-1.993 3.141-3.022 4.704-1.145 1.463-2.237 2.989-3.503 4.353a60.564 60.564 0 01-8.068 7.702c-2.952 2.329-5.94 4.372-9.482 6.149h-.004l1.586-2.53c.338 7.859-1.452 16.262-6.207 22.942-2.49 3.193-5.441 6.023-8.848 8.037-3.396 1.969-7.007 3.556-10.756 4.377-1.847.564-3.752.71-5.63 1.064-1.892.107-3.786.401-5.676.329-3.797.127-7.547-.375-11.289-.982-1.975-.409-3.953-1.044-5.832-2.026a17.83 17.83 0 01-4.968-4.054c-2.843-3.316-4.213-7.427-5.004-11.326-1.482-7.908-1.02-15.61-.516-23.155.559-7.555 1.403-15.003 1.938-22.413.093-1.805.319-3.783.55-5.756.134-1.973.721-3.908 1.115-5.857 1.134-3.82 2.554-7.665 4.939-10.961 2.298-3.323 5.228-6.195 8.574-8.352 1.654-1.118 3.45-1.971 5.265-2.746 1.889-.71 3.644-1.293 5.853-1.629l-.184.028 51.631-10.039c1.369-.265 2.686.67 2.944 2.089.257 1.421-.644 2.788-2.015 3.054z" fill="#23295B"/><path d="M916.223 301.196c2.396 4.318 3.492 9.284 3.469 14.319-.011 5.034-1.209 10.137-3.505 14.647-.589 1.112-1.292 2.155-1.936 3.233-.609 1.109-1.417 2.052-2.227 2.991-.83.915-1.536 1.958-2.465 2.753-.89.838-1.828 1.62-2.738 2.423-.883.841-1.906 1.476-2.915 2.127l-3.014 1.925a80.221 80.221 0 01-6.45 2.864.658.658 0 01-.855-.402.705.705 0 01.191-.766l.057-.052c1.758-1.552 3.583-2.908 5.343-4.318l2.48-2.297c.806-.779 1.705-1.439 2.399-2.318.746-.823 1.465-1.666 2.228-2.452.791-.77 1.328-1.748 2.005-2.602 1.377-1.703 2.379-3.641 3.447-5.521.408-1.008.878-1.98 1.328-2.967.413-1.002.678-2.062 1.031-3.09.642-2.079 1.055-4.238 1.336-6.436.54-4.392.387-8.999-.357-13.555l-.013-.072a.65.65 0 01.513-.75.624.624 0 01.648.316zM904.084 233.687c-.045-.001-28.565-3.111-46.9-3.114-3.601 0-6.814.118-9.422.418-3.816.445-7.379 1.03-10.685 2.241-2.474.908-4.802 2.186-6.872 4.009-3.115 2.737-5.555 6.644-7.294 11.993-1.746 5.359-2.85 12.199-3.364 21.142-.568 9.922-.762 18.519-.762 25.644 0 15.452.915 23.974.924 24.063.021.186.071.415.133.594.064.166 2.042 5.888 6.659 11.751 2.312 2.928 5.299 5.899 9.079 8.16 3.774 2.262 8.361 3.786 13.679 3.782 3.101 0 6.44-.513 10.007-1.653 1.332-.426 2.077-1.89 1.668-3.27-.411-1.38-1.823-2.155-3.154-1.729-3.129 1-5.956 1.421-8.521 1.421-4.393-.006-8.041-1.225-11.16-3.082-4.665-2.78-8.097-7.08-10.318-10.719a41.487 41.487 0 01-2.446-4.624 31.96 31.96 0 01-.578-1.366l-.134-.35-.028-.08-.006-.015-.576.218.578-.216-.002-.002-.576.218.578-.216-2.374.886 2.506-.292-.007-.081c-.093-.898-.887-9.112-.887-23.398 0-7.025.192-15.519.755-25.334.438-7.691 1.337-13.622 2.611-18.145.956-3.394 2.118-5.99 3.432-7.992 1.979-2.999 4.257-4.744 7.15-5.996 2.887-1.238 6.418-1.889 10.546-2.363 2.296-.268 5.372-.388 8.861-.388 8.917 0 20.546.77 29.906 1.543 4.682.385 8.802.773 11.752 1.063 1.473.144 2.654.265 3.465.348.812.085 1.25.133 1.251.133 1.385.152 2.628-.891 2.772-2.328.146-1.436-.86-2.724-2.246-2.874zM795.001 204.24c-.329.103-3.23 1.116-6.043 4.709-2.819 3.588-5.404 9.672-5.391 19.387 0 1.168.037 2.39.114 3.668.087 1.442 1.285 2.538 2.675 2.447 1.39-.09 2.447-1.332 2.36-2.773a55.319 55.319 0 01-.103-3.342c.012-8.795 2.255-13.508 4.263-16.093 1.013-1.292 1.992-2.063 2.684-2.506.347-.221.62-.36.787-.435l.165-.07.013-.006-.463-1.419.427 1.432.036-.013-.463-1.419.427 1.432c1.33-.426 2.077-1.891 1.666-3.272-.411-1.38-1.822-2.153-3.154-1.727z" fill="#23295B"/><path d="M824.064 324.753c-1.75.696-3.467 1.476-5.256 2.087l-2.775.699-1.39.344-1.444.134c-.963.08-1.926.189-2.892.229l-2.928-.232c-.986-.011-1.926-.388-2.887-.598l-1.435-.377-1.361-.594c-3.664-1.541-6.837-4.109-9.342-7.121-1.244-1.519-2.387-3.115-3.351-4.818a32.007 32.007 0 01-2.562-5.412l-.099-.443-.011-.098-3.407-35.675c-.137-1.438.876-2.718 2.262-2.86 1.385-.142 2.622.906 2.759 2.345l.004.035 2.923 35.723-.109-.54c1.075 3.03 2.859 6.192 4.941 8.77 2.113 2.611 4.706 4.739 7.642 6.023l1.094.508 1.157.31c.778.17 1.522.52 2.339.52l2.405.235c.811-.03 1.628-.118 2.442-.168l1.226-.085 1.214-.294 2.433-.572c1.6-.524 3.169-1.216 4.76-1.808l.276-.103c1.027-.381 2.155.171 2.524 1.234.363 1.05-.153 2.205-1.152 2.602z" fill="#23295B"/><path d="M926.1 324.875l.649 9.21s16.791 5.55 31.109-5.396c0 0-66.729 35.956-66.773 77.025 0 0-21.41-64.291-100.575-73.316 0 0-5.996-30.014-43.799-32.413 0 0 13.951 1.597 24.793-6.447 0 0 1.554 4.82 15.843 6.374 0 0-2.472 28.14 30.943 24.978 0 0 2.944-4.628 6.351 1.404s10.902 18.019 26.815 15.458c0 0 6.536-3.259 8.244 6.185 1.709 9.443 20.393 22.987 48.769 5.053 0 0 7.033 1.327 8.11-23.795l9.521-4.32zM836.248 461.571s10.534 81.415 10.726 83.199c.192 1.785-1.796-93.267-1.796-93.267 29.921-5.279 31.009-19.403 31.009-19.403-93.222-8.147-148.941-104.638-148.941-104.638l.126 3.24c8.361 12.683 17.588 26.364 26.591 41.363 21.658 36.07 70.005 72.55 70.005 72.55 5.091 39.308 20.382 415.923 20.382 415.923 13.912 1.714 29.209 2.002 44.864 1.345-28.784-140.239-52.966-400.312-52.966-400.312zM976.777 387.462s-8.318 60.12-60.858 53.575c0 0 27.783 11.225 54.724-13.576l6.134-39.999zM749.162 233.938l-1.383-2.186c-.212.144-2.565 1.786-4.888 5.469-2.326 3.676-4.576 9.415-4.569 17.459 0 3.386.392 7.176 1.323 11.398l.502 2.275 2.239-.258c.119-.019 6.858-.794 14.423-3.672 3.784-1.445 7.783-3.414 11.276-6.169 3.483-2.748 6.495-6.335 8.013-10.952 1.917-5.84 2.583-10.299 2.583-13.712.002-3.134-.57-5.385-1.237-6.904-.666-1.522-1.417-2.291-1.661-2.507l-1.048-.94-26.65 8.304-.306.209 1.383 2.186.726 2.504 24.971-7.779-.726-2.504-1.648 1.978.847-1.017-.943.926.096.091.847-1.017-.943.926.042.052c.196.279 1.191 1.683 1.205 5.492 0 2.701-.534 6.606-2.315 12.025-1.107 3.372-3.359 6.158-6.292 8.478-4.386 3.476-10.24 5.746-14.968 7.067a65.456 65.456 0 01-5.925 1.371 48.448 48.448 0 01-2.177.347l-.109.015-.027.004.282 2.598 2.459-.583c-.854-3.87-1.197-7.267-1.197-10.232.007-7.042 1.915-11.674 3.748-14.599.919-1.457 1.828-2.482 2.483-3.126.326-.321.591-.546.758-.682l.178-.139.029-.02-.591-.895.573.906.018-.011-.591-.895.573.906-1.383-2.187.726 2.504-.726-2.504z" fill="#23295B"/><path d="M823.968 444.615l1.485-2.115s-.178-.133-.531-.404c-2.65-2.036-14.882-11.572-28.944-24.775-14.061-13.194-29.951-30.097-39.874-46.638-10.881-18.125-22.059-34.295-31.607-49.03-9.551-14.729-17.454-28.038-21.85-40.294-1.435-3.997-2.028-7.558-2.028-10.742.002-3.928.899-7.296 2.352-10.243 2.175-4.412 5.667-7.877 9.289-10.363 3.603-2.484 7.355-3.967 9.674-4.464 2.32-.504 5.306-1.382 8.548-2.423 9.699-3.122 21.583-7.711 21.606-7.719 1.163-.448 1.839-1.71 1.592-2.972l-.004-.019c-.055-.284-.625-3.449-.623-7.54-.005-3.569.445-7.827 1.908-11.444.728-1.812 1.697-3.462 2.966-4.853 1.272-1.392 2.842-2.541 4.887-3.363 3.243-1.3 6.691-1.817 10.1-1.817 5.596-.004 11.066 1.408 15.099 2.838a55.556 55.556 0 014.82 1.96c.572.265 1.015.485 1.31.634l.328.172.076.041.016.007a2.436 2.436 0 002.079.135l-.171-.469.168.469h.003l-.171-.469.168.469c.112-.046 4.768-1.811 11.363-1.807 3.985 0 8.67.635 13.551 2.637 3.672 1.506 9.32 3.432 15.936 5.549 19.819 6.34 48.21 14.314 54.749 16.183 4.035 1.155 6.406 2.733 7.759 3.933a9.288 9.288 0 011.335 1.435l.228.34.026.046 1.077-.616-1.101.566.024.05 1.077-.616-1.101.566c.507 1.061 1.63 1.635 2.751 1.404l-.032-.16.03.16h.002l-.032-.16.03.16c.098-.02 1.757-.336 4.231-.334 3.462-.003 8.473.624 13.122 3.357 2.33 1.367 4.587 3.251 6.597 5.897 2.006 2.647 3.77 6.066 5.046 10.545.212.743.742 1.36 1.429 1.664a2.451 2.451 0 002.149-.083l-.509-1.02.502 1.026.007-.006-.509-1.02.502 1.026c.016-.021 3.339-1.711 7.456-1.696 2.675.007 5.64.655 8.572 2.825 2.928 2.177 5.918 5.971 8.318 12.636 6.367 17.712 13.586 48.811 13.579 85.418 0 14.686-1.157 30.264-3.984 46.239-3.558 20.105-5.035 33.54-5.035 45.664 0 11.002 1.219 20.837 3.124 33.439 1.906 12.611 4.506 28.043 7.331 50.423 4.407 34.905 17.068 111.02 28.641 178.482 11.56 67.45 22.03 126.199 22.03 126.202l2.48-.475-.64-2.528s-.32.086-.96.254c-4.74 1.26-26.74 6.968-55.748 12.357-29.004 5.39-65.032 10.451-97.742 10.449-10.329 0-20.324-.505-29.651-1.655l-.299 2.598 2.521-.11c0-.002-3.824-94.159-8.282-193.233-2.231-49.537-4.619-100.303-6.77-141.151-1.075-20.424-2.089-38.367-2.997-52.445-.908-14.091-1.698-24.26-2.353-29.331a2.628 2.628 0 00-1.016-1.768l-1.485 2.115-2.499.348c.616 4.756 1.417 14.953 2.319 28.985 3.165 49.157 7.677 145.854 11.397 230.234a51207.415 51207.415 0 016.645 156.467c.053 1.285.991 2.334 2.223 2.485 9.574 1.181 19.759 1.691 30.247 1.691 35.414-.002 74.295-5.815 104.371-11.618 30.069-5.804 51.319-11.603 51.359-11.614 1.28-.349 2.08-1.663 1.84-3.005 0-.011-.65-3.67-1.82-10.23-4.06-22.959-14.35-81.315-24.58-141.533-10.224-60.21-20.4-122.323-24.227-152.651-2.837-22.479-5.456-38.015-7.35-50.553-1.897-12.545-3.063-22.043-3.063-32.629-.002-11.664 1.419-24.755 4.952-44.721 2.887-16.318 4.067-32.211 4.067-47.182-.005-37.335-7.316-68.904-13.898-87.243-2.647-7.383-6.207-12.171-10.106-15.063-3.895-2.901-8.033-3.812-11.511-3.805-5.566.019-9.56 2.18-9.767 2.277l1.159 2.324 2.421-.742c-1.435-5.043-3.491-9.094-5.921-12.295-3.643-4.811-8.113-7.662-12.363-9.258-4.258-1.602-8.304-1.993-11.321-1.995-3.074.002-5.092.409-5.213.433l.493 2.565 2.259-1.16c-.127-.268-.878-1.713-2.802-3.421-1.922-1.711-5.009-3.665-9.701-5.003-4.373-1.251-18.424-5.204-33.153-9.572-7.362-2.183-14.891-4.467-21.448-6.565-6.554-2.096-12.159-4.016-15.568-5.416-5.573-2.286-10.907-3.004-15.407-3.004-7.695.005-12.965 2.078-13.156 2.149l.899 2.444 1.182-2.311c-.085-.046-2.903-1.592-7.283-3.142-4.383-1.548-10.328-3.115-16.73-3.121-3.896.002-7.971.589-11.919 2.17a18.177 18.177 0 00-6.733 4.647c-2.642 2.901-4.19 6.423-5.091 9.909-.899 3.493-1.162 6.983-1.164 9.983.004 4.889.708 8.489.728 8.601l2.472-.52-.879-2.451-.915.349c-2.066.788-7.369 2.79-13.082 4.794-5.7 2.002-11.874 4.014-15.431 4.781-2.068.452-4.59 1.355-7.296 2.752-4.047 2.094-8.49 5.296-12 9.828-3.507 4.517-6.04 10.446-6.031 17.609 0 3.863.726 8.061 2.346 12.567 4.676 12.998 12.784 26.55 22.39 41.386 9.612 14.829 20.738 30.929 31.512 48.875 11.073 18.424 28.704 36.651 43.591 50.377 14.886 13.712 27.027 22.874 27.072 22.907l1.484-2.114-2.499.348 2.499-.348z" fill="#23295B"/></g></g><defs><filter id="filter0_i" x="422" y="171" width="702" height="527" filterUnits="userSpaceOnUse" color-interpolation-filters="sRGB"><feFlood flood-opacity="0" result="BackgroundImageFix"/><feBlend in="SourceGraphic" in2="BackgroundImageFix" result="shape"/><feColorMatrix in="SourceAlpha" values="0 0 0 0 0 0 0 0 0 0 0 0 0 0 0 0 0 0 127 0" result="hardAlpha"/><feOffset dy="4"/><feGaussianBlur stdDeviation="25"/><feComposite in2="hardAlpha" operator="arithmetic" k2="-1" k3="1"/><feColorMatrix values="0 0 0 0 0 0 0 0 0 0 0 0 0 0 0 0 0 0 0.7 0"/><feBlend in2="shape" result="effect1_innerShadow"/></filter><filter id="filter1_d" x="388" y="140" width="778" height="573" filterUnits="userSpaceOnUse" color-interpolation-filters="sRGB"><feFlood flood-opacity="0" result="BackgroundImageFix"/><feColorMatrix in="SourceAlpha" values="0 0 0 0 0 0 0 0 0 0 0 0 0 0 0 0 0 0 127 0"/><feOffset dx="-6" dy="-7"/><feGaussianBlur stdDeviation="10"/><feColorMatrix values="0 0 0 0 0 0 0 0 0 0 0 0 0 0 0 0 0 0 0.3 0"/><feBlend in2="BackgroundImageFix" result="effect1_dropShadow"/><feBlend in="SourceGraphic" in2="effect1_dropShadow" result="shape"/></filter><filter id="filter2_d" x="-23" y="-15" width="1197" height="745" filterUnits="userSpaceOnUse" color-interpolation-filters="sRGB"><feFlood flood-opacity="0" result="BackgroundImageFix"/><feColorMatrix in="SourceAlpha" values="0 0 0 0 0 0 0 0 0 0 0 0 0 0 0 0 0 0 127 0"/><feOffset dy="8"/><feGaussianBlur stdDeviation="11"/><feColorMatrix values="0 0 0 0 0 0 0 0 0 0 0 0 0 0 0 0 0 0 0.25 0"/><feBlend in2="BackgroundImageFix" result="effect1_dropShadow"/><feBlend in="SourceGraphic" in2="effect1_dropShadow" result="shape"/></filter><filter id="filter3_d" x="610.772" y="198.165" width="594.895" height="744.147" filterUnits="userSpaceOnUse" color-interpolation-filters="sRGB"><feFlood flood-opacity="0" result="BackgroundImageFix"/><feColorMatrix in="SourceAlpha" values="0 0 0 0 0 0 0 0 0 0 0 0 0 0 0 0 0 0 127 0"/><feOffset dx="8" dy="18"/><feGaussianBlur stdDeviation="8"/><feColorMatrix values="0 0 0 0 0 0 0 0 0 0 0 0 0 0 0 0 0 0 0.58 0"/><feBlend in2="BackgroundImageFix" result="effect1_dropShadow"/><feBlend in="SourceGraphic" in2="effect1_dropShadow" result="shape"/></filter></defs></svg>